<svg id="Layer_1" data-name="Layer 1" xmlns="http://www.w3.org/2000/svg" viewBox="0 0 94.29 136.01"><defs><style>.cls-1{fill:#fbe5d6;}.cls-2{fill:#7c3c0c;}.cls-3{fill:#f4b183;}.cls-4{opacity:0.13;}</style></defs><title>code</title><path class="cls-1" d="M571.31,263.19c-4-7.54-8-15.78-12-23.31-4.15,7.85-8.3,15.7-12.23,23.31C554.76,264.46,563.73,265.07,571.31,263.19Z" transform="translate(-545.14 -219.6)"/><path class="cls-2" d="M560.39,265.25a83.63,83.63,0,0,1-13.47-1.2.88.88,0,0,1-.63-1.26c4-7.66,8.17-15.62,12.24-23.32a.86.86,0,0,1,.77-.46h0a.86.86,0,0,1,.77.46c2,3.77,4,7.79,6,11.67s4,7.88,6,11.64a.86.86,0,0,1-.56,1.25A46.09,46.09,0,0,1,560.39,265.25Zm-12-2.73c8.49,1.3,15.75,1.33,21.63.07-1.84-3.48-3.69-7.12-5.49-10.66-1.71-3.38-3.48-6.86-5.23-10.19C555.66,248.62,551.94,255.68,548.39,262.52Z" transform="translate(-545.14 -219.6)"/><path class="cls-3" d="M559.92,253.18l2,.06,4.28,0c-2.29-4.5-4.57-9-6.86-13.33q-3.48,6.57-6.9,13.09C554.91,253,557.42,253.1,559.92,253.18Z" transform="translate(-545.14 -219.6)"/><path class="cls-2" d="M561.9,254.11l-2-.06h0l-1.43-.05c-2-.07-4.05-.13-6.07-.16a.87.87,0,0,1-.74-.42.88.88,0,0,1,0-.85q3.42-6.51,6.9-13.1a.86.86,0,0,1,.77-.46h0a.86.86,0,0,1,.77.46c2,3.82,4.1,7.89,6.09,11.82l.78,1.53a.86.86,0,0,1,0,.85.89.89,0,0,1-.74.41h0Q564,254.08,561.9,254.11Zm-1.95-1.8,2,.06,2.84,0-.14-.26c-1.74-3.43-3.53-7-5.31-10.34q-2.76,5.2-5.47,10.39c1.57,0,3.15.08,4.69.13Z" transform="translate(-545.14 -219.6)"/><rect class="cls-1" x="1.93" y="43.5" width="24.25" height="63.05"/><path class="cls-2" d="M571.31,327H547.07a.87.87,0,0,1-.87-.87v-63a.87.87,0,0,1,.87-.87h24.24a.86.86,0,0,1,.87.87v63A.86.86,0,0,1,571.31,327Zm-23.37-1.74h22.5V264h-22.5Z" transform="translate(-545.14 -219.6)"/><rect class="cls-3" x="0.87" y="106.55" width="26.55" height="11.23"/><path class="cls-2" d="M572.55,338.25H546a.87.87,0,0,1-.87-.87V326.15a.87.87,0,0,1,.87-.87h26.54a.87.87,0,0,1,.87.87v11.23A.87.87,0,0,1,572.55,338.25Zm-25.67-1.74h24.8V327h-24.8Z" transform="translate(-545.14 -219.6)"/><path class="cls-1" d="M547.07,337.38h24.24a11.23,11.23,0,0,1-11.23,11.23H558.3A11.23,11.23,0,0,1,547.07,337.38Z" transform="translate(-545.14 -219.6)"/><path class="cls-2" d="M562.36,349.48H556a9.82,9.82,0,0,1-9.82-9.82v-2.28a.87.87,0,0,1,.87-.87h24.24a.86.86,0,0,1,.87.87v2.28A9.82,9.82,0,0,1,562.36,349.48Zm-14.42-11.23v1.41a8.08,8.08,0,0,0,8.08,8.08h6.34a8.08,8.08,0,0,0,8.08-8.08v-1.41Z" transform="translate(-545.14 -219.6)"/><path class="cls-2" d="M550.7,323.29h0a.28.28,0,0,1-.28-.3c.8-19,1-38.28.53-57.3a.29.29,0,0,1,.29-.29.28.28,0,0,1,.29.28c.45,19,.27,38.32-.53,57.33A.29.29,0,0,1,550.7,323.29Z" transform="translate(-545.14 -219.6)"/><path class="cls-2" d="M555.05,322.52h0a.29.29,0,0,1-.29-.29l.12-56.54a.29.29,0,0,1,.29-.29h0a.29.29,0,0,1,.29.29l-.12,56.54A.29.29,0,0,1,555.05,322.52Z" transform="translate(-545.14 -219.6)"/><path class="cls-2" d="M559.21,322.52a.29.29,0,0,1-.29-.29c-.21-17.51-.39-36.21,0-55.41a.3.3,0,0,1,.3-.28.28.28,0,0,1,.28.29c-.37,19.19-.19,37.89,0,55.4a.29.29,0,0,1-.29.29Z" transform="translate(-545.14 -219.6)"/><path class="cls-2" d="M563.34,322.52h0a.29.29,0,0,1-.28-.3c.12-5.05,0-15.07-.09-26.68-.09-9.42-.2-20.1-.2-29.85a.29.29,0,1,1,.58,0c0,9.75.11,20.43.2,29.85.11,11.61.21,21.63.09,26.7A.28.28,0,0,1,563.34,322.52Z" transform="translate(-545.14 -219.6)"/><path class="cls-2" d="M568.3,322.52a.3.3,0,0,1-.29-.29c-.25-18.39-.65-37-1.19-55.39a.29.29,0,0,1,.28-.3.3.3,0,0,1,.3.28c.54,18.37.94,37,1.19,55.41a.28.28,0,0,1-.28.29Z" transform="translate(-545.14 -219.6)"/><path class="cls-2" d="M622.81,309.68A.87.87,0,0,1,622,309a42.83,42.83,0,0,1,1.24-19.58c.38-1.24.82-2.48,1.24-3.68a35.11,35.11,0,0,0,2.21-8.16c.38-3.65-.75-8.17-4.14-10-4-2.21-9.09.12-13.55,2.19l-.66.3c-5.16,2.37-12.32,3.44-15.53-1.36s.57-11,3.74-15.19c2.86-3.78,5.59-7.74,8.13-11.76,4.23-6.7,5.28-11.8,3.2-15.57-3.09-5.62-11.33-5.55-18-3.6a74.72,74.72,0,0,0-25.25,13,.86.86,0,0,1-1.22-.14.87.87,0,0,1,.14-1.22,76.38,76.38,0,0,1,25.84-13.35c7.32-2.13,16.43-2.09,20,4.43,2.42,4.38,1.35,10.05-3.25,17.34-2.56,4.06-5.33,8.06-8.22,11.88s-6.32,9.23-3.68,13.17,8.83,2.83,13.36.75l.66-.3c4.84-2.24,10.32-4.77,15.12-2.14,4.37,2.4,5.44,7.82,5,11.74a37.7,37.7,0,0,1-2.3,8.56c-.42,1.18-.85,2.4-1.22,3.6a41,41,0,0,0-1.18,18.77.87.87,0,0,1-.71,1Z" transform="translate(-545.14 -219.6)"/><path class="cls-1" d="M622.13,301.52c-4.06.17-8.11,1.5-10.38,4.87s-3,7.51-3.47,11.55a97.47,97.47,0,0,0-.35,17.75c.3,4.13.9,8.37,3,11.92a14.74,14.74,0,0,0,9.77,6.91,13.4,13.4,0,0,0,11.44-3.23c3.46-3.22,4.82-8.07,5.69-12.72s.68-8.95.68-13.62c0-9.05-.41-14.55-5.34-19.86C630.26,301.92,625.94,301.36,622.13,301.52Z" transform="translate(-545.14 -219.6)"/><path class="cls-2" d="M623.15,355.61a14,14,0,0,1-2.58-.23,15.72,15.72,0,0,1-10.36-7.32c-2.26-3.79-2.86-8.34-3.14-12.31a98.32,98.32,0,0,1,.34-17.91c.46-4.09,1.21-8.36,3.62-11.94,2.75-4.07,7.53-5.1,11.06-5.25h0c5.3-.22,9.14,1,11.75,3.85,5.2,5.6,5.57,11.47,5.57,20.45,0,.66,0,1.31,0,2a60.9,60.9,0,0,1-.71,11.81c-.85,4.59-2.22,9.74-6,13.21A14.19,14.19,0,0,1,623.15,355.61Zm-1-53.22h0c-3.13.13-7.36,1-9.7,4.49-2.2,3.26-2.9,7.29-3.33,11.15a97.63,97.63,0,0,0-.34,17.6c.28,3.95.83,8.07,2.91,11.54a13.91,13.91,0,0,0,9.18,6.5,12.55,12.55,0,0,0,10.68-3c3.36-3.13,4.63-8,5.43-12.25a59.63,59.63,0,0,0,.68-11.49c0-.65,0-1.31,0-2,0-9.35-.5-14.3-5.1-19.27C630.32,303.26,626.92,302.18,622.17,302.39Z" transform="translate(-545.14 -219.6)"/><path class="cls-2" d="M623.55,329.07a.86.86,0,0,1-.87-.83l-1.26-26.12a.87.87,0,0,1,.83-.91.86.86,0,0,1,.91.82l1.25,26.13a.86.86,0,0,1-.82.91Z" transform="translate(-545.14 -219.6)"/><path class="cls-3" d="M623.35,309.4a2.89,2.89,0,0,0-3.21,1.75,8.49,8.49,0,0,0-.44,3.92c0,1,.09,2.07.14,3.11a7.92,7.92,0,0,0,.45,2.74,2.7,2.7,0,0,0,2,1.73,2.6,2.6,0,0,0,2.29-1.11,6.15,6.15,0,0,0,1-2.46,18.84,18.84,0,0,0,.18-6.86A3.17,3.17,0,0,0,623.35,309.4Z" transform="translate(-545.14 -219.6)"/><path class="cls-2" d="M622.55,323.53a2,2,0,0,1-.34,0,3.53,3.53,0,0,1-2.72-2.25,8.53,8.53,0,0,1-.52-3l-.14-3.11a9,9,0,0,1,.53-4.32,3.73,3.73,0,0,1,4.25-2.22h0a4.05,4.05,0,0,1,3,3.51,19.7,19.7,0,0,1-.19,7.18,6.9,6.9,0,0,1-1.14,2.8A3.52,3.52,0,0,1,622.55,323.53Zm.19-13.35a2.25,2.25,0,0,0-1.81,1.34,7.65,7.65,0,0,0-.36,3.51l.14,3.11a7.43,7.43,0,0,0,.38,2.44,1.86,1.86,0,0,0,1.33,1.21,1.81,1.81,0,0,0,1.5-.78,5.41,5.41,0,0,0,.82-2.11,17.81,17.81,0,0,0,.17-6.55,2.32,2.32,0,0,0-1.82-2.12h0A1.41,1.41,0,0,0,622.74,310.18Z" transform="translate(-545.14 -219.6)"/><path class="cls-2" d="M622.44,329.24c-4.73,0-9.46-.18-14.16-.54a.87.87,0,0,1,.13-1.73,184,184,0,0,0,30.06-.17.87.87,0,0,1,.94.79.88.88,0,0,1-.79,1C633.26,329,627.85,329.24,622.44,329.24Z" transform="translate(-545.14 -219.6)"/><g class="cls-4"><path class="cls-2" d="M570.3,337.4a2,2,0,0,0-1.91-.32h-.12c-2.27.07-4.55.09-6.82.14-3.28,0-6.55-.09-9.82-.11-1.28.05-2.64-.34-3.87,0a1.68,1.68,0,0,0,.64,3.22c6.44.34,12.88,1.05,19.33.64a5.91,5.91,0,0,0,2.37-.34A2,2,0,0,0,570.3,337.4Z" transform="translate(-545.14 -219.6)"/></g><g class="cls-4"><path class="cls-2" d="M636.6,344.79a1.67,1.67,0,0,0,0-.86,1.59,1.59,0,0,0-1.93-1.09c-1.31.47-1.44,1.89-2.58,3.59a10.17,10.17,0,0,1-2.14,1.89,18.58,18.58,0,0,1-4.8,1.87A10.74,10.74,0,0,1,619,350a10.6,10.6,0,0,1-4.33-2.28h0c-.91-.65-1.48-1.76-2.48-2.26a1.85,1.85,0,0,0-2,3,16.39,16.39,0,0,0,13.47,5.91,17.51,17.51,0,0,0,7.15-1.92,9.37,9.37,0,0,0,3.17-2.77,9.72,9.72,0,0,0,1.57-2.43c.31-.73.66-1.44,1-2.17l0,.05a1.43,1.43,0,0,0,.14-.34,1.74,1.74,0,0,1-.11.25C636.53,345,636.57,344.88,636.6,344.79Z" transform="translate(-545.14 -219.6)"/></g><g class="cls-4"><path class="cls-2" d="M636.6,344.79h0v0Z" transform="translate(-545.14 -219.6)"/></g></svg>