<svg id="Layer_1" data-name="Layer 1" xmlns="http://www.w3.org/2000/svg" viewBox="0 0 147.14 114.01"><defs><style>.cls-1{fill:#f4b183;}.cls-2{fill:#7c3c0c;}.cls-3{fill:#fbe5d6;}.cls-4{opacity:0.13;}</style></defs><title>contacts</title><path class="cls-1" d="M1.42,48.52C16.47,34.62,32.35,19.9,47.42,6,50.18,3.45,53.36.74,57.11.85a12.63,12.63,0,0,1,6.31,2.47c17.54,11.47,31,37.12,42.13,46.43C105,67.21,92.13,85,79,96.55c-4.55,4-9.56,7.7-15.36,9.44a30.53,30.53,0,0,1-13.44.75C37.07,104.68,25.94,95.39,18.57,84.3S6.25,61.17,1.42,48.52Z" transform="translate(0 0)"/><path class="cls-2" d="M55.42,108a35,35,0,0,1-5.31-.41C38,105.68,26.24,97.37,17.88,84.77,10.28,73.3,5.19,60.77.63,48.82a.87.87,0,0,1,.22-.93c7.53-7,15.26-14.1,23-21.26l23-21.26c3-2.78,6.31-5.49,10.29-5.37a13.47,13.47,0,0,1,6.78,2.6c10.5,6.92,19.56,18.82,27.5,29.33,5.25,6.92,10.21,13.46,14.65,17.17a.85.85,0,0,1,.3.68c-.56,18-14.22,36.33-26.82,47.41-3.94,3.47-9.28,7.69-15.67,9.61A29.57,29.57,0,0,1,55.42,108Zm-53-59.25C6.89,60.4,11.9,72.68,19.29,83.83c8.13,12.24,19.41,20.24,31.06,22.07a29.76,29.76,0,0,0,13.07-.73c6.07-1.82,11.23-5.91,15-9.26,12.23-10.76,25.49-28.4,26.22-45.77-4.5-3.87-9.4-10.34-14.59-17.18C82.21,22.57,73.27,10.78,63,4.07a12,12,0,0,0-5.9-2.33C53.68,1.66,50.73,4.12,48,6.67c-7.53,6.94-15.26,14.1-23,21.25Z" transform="translate(0 0)"/><path class="cls-3" d="M21.42,10q1,42,.57,84.11c-.43,42.11,63.76-.12,63.83-.91q-.21-41.52,1.15-83Z" transform="translate(0 0)"/><path class="cls-2" d="M22,95a.87.87,0,0,1-.61-.26.86.86,0,0,1-.25-.61c.31-27.9.12-56.19-.56-84.08a.81.81,0,0,1,.24-.61.83.83,0,0,1,.61-.26h0l65.55.18a.87.87,0,0,1,.61.26.85.85,0,0,1,.24.62c-.9,27.53-1.29,55.45-1.14,83v.08c-.08,1-.09,1-10.83,1.25-5.3.11-12.69.2-21.95.27C38.1,94.93,22.13,95,22,95Zm.31-84.11c.66,27.33.84,55,.55,82.4,23.23,0,57.12-.29,62.12-.76-.13-27,.24-54.43,1.12-81.47Z" transform="translate(0 0)"/><path class="cls-3" d="M1.42,48.52A247.59,247.59,0,0,1,1.27,95c-.41,4.28-.79,9,.37,13.11a6.86,6.86,0,0,0,6.63,5H20.19l14.12-.05,61.33-.22a15.58,15.58,0,0,0,5.59-.7c1.75-.69,3.33-2.19,3.28-3.92.7-19.63,1.19-39.26,1-58.48Q85.16,69.4,63.83,88c-2.25,2-5.22,4-8.06,3.16C47.46,88.05,40.63,82,34,76.17,23.12,66.45,12.26,56.79,1.42,48.52Z" transform="translate(0 0)"/><path class="cls-2" d="M8.23,114a7.75,7.75,0,0,1-7.42-5.63C-.36,104.25,0,99.68.41,95A247.69,247.69,0,0,0,.56,48.59a.86.86,0,0,1,.77-.93.87.87,0,0,1,.6.18C12.8,56.13,23.86,66,34.56,75.47c6.2,5.52,13.23,11.77,21.5,14.87,2.49.77,5.3-1.34,7.2-3C77.4,75,91.43,62.15,105,49.14a.84.84,0,0,1,1.2,0,.87.87,0,0,1,.24.59c.12,16.65-.21,35.24-1.05,58.51.06,2.17-1.88,3.93-3.83,4.68a16.07,16.07,0,0,1-5.88.76L8.26,114ZM2.42,50.37A249.58,249.58,0,0,1,2.1,95.12c-.44,4.55-.75,8.95.34,12.8a6,6,0,0,0,5.78,4.39h0L95.59,112a15,15,0,0,0,5.28-.65c1.34-.52,2.77-1.71,2.74-3.1.8-22.37,1.14-40.38,1.06-56.51C91.56,64.3,78,76.74,64.34,88.62,62.13,90.55,58.81,93,55.47,92c-8.61-3.22-15.77-9.59-22.09-15.2C23.25,67.71,12.76,58.37,2.42,50.37Z" transform="translate(0 0)"/><path class="cls-3" d="M122.14,79.16c-10.49-.66-21.81-.81-32.39-.66a162.57,162.57,0,0,0,.91,22.82c10.17-.19,20.35-.3,30.74-.21-.07,3.8-.14,7.61-.14,11.45,8.3-7.14,16.6-14.29,25-22Q134.8,79,122.42,68.17C122.42,71.85,122.21,75.6,122.14,79.16Z" transform="translate(0 0)"/><path class="cls-2" d="M121.26,113.41a.72.72,0,0,1-.35-.08.86.86,0,0,1-.5-.77c0-3.56.06-7.13.12-10.61-8.84-.06-18.1,0-29.86.22a.85.85,0,0,1-.86-.75,164.29,164.29,0,0,1-.92-22.94.87.87,0,0,1,.85-.84c11.64-.15,22.26.06,31.57.62,0-1.53.08-3.08.13-4.64,0-1.82.11-3.65.14-5.47a.86.86,0,0,1,.51-.76.85.85,0,0,1,.91.14c8.37,7.31,16.41,14.88,23.89,22.48a.81.81,0,0,1,.25.62.89.89,0,0,1-.28.61c-8.44,7.68-16.88,14.94-25,22A.86.86,0,0,1,121.26,113.41Zm-7.16-13.19h7.31a.87.87,0,0,1,.85.87c-.06,3.14-.12,6.36-.14,9.58,7.5-6.46,15.22-13.12,22.94-20.13-6.87-6.94-14.2-13.85-21.81-20.56,0,1.22-.07,2.44-.11,3.66-.06,1.86-.11,3.71-.14,5.51a.89.89,0,0,1-.28.61.82.82,0,0,1-.63.22c-9.26-.58-19.85-.81-31.51-.67a161.74,161.74,0,0,0,.84,21.11C100,100.3,107.31,100.22,114.1,100.22Z" transform="translate(0 0)"/><path class="cls-2" d="M33.42,25.07a.85.85,0,0,1,0-1.7l42-.18h0a.85.85,0,0,1,.85.85h0a.86.86,0,0,1-.85.86Z" transform="translate(0 0)"/><path class="cls-2" d="M75.42,38.79h0L33,37.79a.85.85,0,1,1,0-1.7h0l42.47,1a.86.86,0,0,1,.76,1,.85.85,0,0,1-.76.76Z" transform="translate(0 0)"/><path class="cls-2" d="M74.62,51.86h0c-13.75-.14-27.71-.53-41.47-1.14a.85.85,0,0,1,.08-1.7c13.74.61,27.67,1,41.41,1.13a.86.86,0,0,1,.76,1,.85.85,0,0,1-.76.76Z" transform="translate(0 0)"/><path class="cls-2" d="M74.53,64.24h0l-41.71-.83a.85.85,0,0,1-.83-.87h0a.86.86,0,0,1,.87-.83l41.71.83a.83.83,0,0,1,.83.83v0a.85.85,0,0,1-.86.84Z" transform="translate(0 0)"/><path class="cls-2" d="M92.68,89.46a.29.29,0,0,1-.13,0,.3.3,0,0,1-.13-.39h0a62.87,62.87,0,0,1,4.82-7.67.29.29,0,0,1,.41,0,.27.27,0,0,1,0,.33,59.87,59.87,0,0,0-4.78,7.6A.3.3,0,0,1,92.68,89.46Z" transform="translate(0 0)"/><path class="cls-2" d="M93,98.76a.22.22,0,0,1-.16,0,.28.28,0,0,1-.08-.39h0c3.52-5.57,7-11.25,10.42-16.9a.29.29,0,0,1,.39-.1.28.28,0,0,1,.1.38h0c-3.4,5.66-6.91,11.35-10.44,16.91A.25.25,0,0,1,93,98.76Z" transform="translate(0 0)"/><path class="cls-2" d="M99.42,98.48a.19.19,0,0,1-.15,0,.28.28,0,0,1-.1-.38h0L109,82.17a.27.27,0,0,1,.36-.14l.06,0a.28.28,0,0,1,.09.38h0L99.69,98.38A.31.31,0,0,1,99.42,98.48Z" transform="translate(0 0)"/><path class="cls-2" d="M106.14,98.37a.22.22,0,0,1-.16,0,.29.29,0,0,1-.08-.4l10.38-16.3a.28.28,0,0,1,.38-.12.29.29,0,0,1,.12.38l0,0L106.42,98.24A.31.31,0,0,1,106.14,98.37Z" transform="translate(0 0)"/><path class="cls-2" d="M112.26,98.6a.33.33,0,0,1-.14,0,.28.28,0,0,1-.1-.38h0c3.26-5.5,6.66-11,10.11-16.4a.3.3,0,0,1,.4-.09.29.29,0,0,1,.08.4c-3.45,5.37-6.85,10.88-10.1,16.38A.3.3,0,0,1,112.26,98.6Z" transform="translate(0 0)"/><path class="cls-2" d="M117.85,98.69a.43.43,0,0,1-.16,0,.29.29,0,0,1-.08-.4c4.35-6.45,8.66-13,12.8-19.57a.28.28,0,0,1,.4-.09.28.28,0,0,1,.08.39h0c-4.15,6.55-8.46,13.14-12.81,19.59A.27.27,0,0,1,117.85,98.69Z" transform="translate(0 0)"/><path class="cls-2" d="M124.94,78.75a.38.38,0,0,1-.15,0,.29.29,0,0,1-.09-.39l1.81-3a.28.28,0,1,1,.49.29h0l-1.81,3A.3.3,0,0,1,124.94,78.75Z" transform="translate(0 0)"/><path class="cls-2" d="M123.42,99.4a.29.29,0,0,1-.29-.29.49.49,0,0,1,.06-.17l11.57-15.61a.28.28,0,0,1,.38-.09.27.27,0,0,1,.1.38l0,0L123.65,99.28A.27.27,0,0,1,123.42,99.4Z" transform="translate(0 0)"/><path class="cls-2" d="M126.26,104.76a.27.27,0,0,1-.17-.06.28.28,0,0,1-.07-.39h0c4.14-5.85,8.49-11.65,12.93-17.25a.28.28,0,0,1,.39-.06h0a.28.28,0,0,1,0,.4h0c-4.43,5.6-8.77,11.39-12.9,17.23A.3.3,0,0,1,126.26,104.76Z" transform="translate(0 0)"/><g class="cls-4"><path class="cls-2" d="M21.69,59.44a34.26,34.26,0,0,0-9.18-8.16,41.29,41.29,0,0,0-4.1-2.43A23.92,23.92,0,0,0,4,46.67a2.11,2.11,0,1,0-1.19,4c2.79,1,3.51,1.45,5.6,2.33h0L9,53.4a1.43,1.43,0,0,0,.56,1.8,17.39,17.39,0,0,1,5,3.44c.75.81,1.49,1.63,2.28,2.4a1.61,1.61,0,0,0,1.21.66,1.21,1.21,0,0,0,.78-.24l.15.14c.2.17.69.78.8.9h0a1.27,1.27,0,0,0,.39.44,1.57,1.57,0,0,0,2.21-.25,1.61,1.61,0,0,0,.27-.52C23,61.18,22.21,60.27,21.69,59.44Z" transform="translate(0 0)"/></g><g class="cls-4"><path class="cls-2" d="M103.56,49.44c-.55.14-.91.62-1.37.92l-1.56,1.19c-2.47,1.69-4.83,3.52-7.19,5.35-1.63,1.25-2.8,2.09-5,3.84-.73.58-1.45,1.16-2.14,1.79-.31.3-.71.56-.84,1a1.87,1.87,0,0,0,3,2.1c2.93-2.72,6.06-5.23,9.1-7.83,2.34-2,3.46-2.53,6-4.59.57-.54,1.43-.88,1.77-1.63a1.56,1.56,0,0,0-1.82-2.14Z" transform="translate(0 0)"/></g><g class="cls-4"><path class="cls-2" d="M104.68,104.4c-.17-2.48-1.92-2.46-3.91-2.49h-.15c-.8-.11-1.6-.12-2.4-.25h-.43c-1.21-.16-1.12-.16-1.48-.21a1.54,1.54,0,0,0-.74,0h-.24a2.22,2.22,0,0,0-2,.55l-1-.35a1.42,1.42,0,0,0-1.14.13,1.5,1.5,0,0,0-.53,2,1.45,1.45,0,0,0,.83.67,37.49,37.49,0,0,1,10.65,5.2,1.74,1.74,0,0,0,2.4-.56,1.77,1.77,0,0,0,.23-.59A22.14,22.14,0,0,0,104.68,104.4Z" transform="translate(0 0)"/></g><g class="cls-4"><path class="cls-2" d="M98.12,101.64h0Z" transform="translate(0 0)"/></g><g class="cls-4"><path class="cls-2" d="M81.68,69.27c-1.53,1.31-3.89,3.43-4.85,4.2s-3.27,2.36-5.8,4.19c-2.83,2.31-4,3.27-7,5.51-1.58,1.11-3.83,3.17-6.78,3.64a15.18,15.18,0,0,1-4.88-.61,13.23,13.23,0,0,1-3.67-1.72c-1.79-1.06-3.5-2.25-5.28-3.34-.68-.41-1.35-1.09-2.21-.84a1.57,1.57,0,0,0-1.08,1.94,1.56,1.56,0,0,0,.66.89q4.1,2.85,8.47,5.29a21.93,21.93,0,0,0,5.25,1.64c4.62,1.17,8.75-1.6,12.05-4.54,3.09-2.52,6-5.27,9.07-7.78,2.29-1.91,4.54-3.89,6.76-5.87.4-.41,1-.7,1.21-1.23a1.22,1.22,0,0,0-1.92-1.37Z" transform="translate(0 0)"/></g><g class="cls-4"><path class="cls-2" d="M67,7.14c-3.53,0-7-.2-10.56-.51a45.68,45.68,0,0,0-7.93.3c-.73.07-1.46.16-2.19.25a2.17,2.17,0,0,0-1.92.93A1.85,1.85,0,0,0,45,10.64a1.87,1.87,0,0,0,.87.25,74,74,0,0,1,14.2-.17c2.46,0,4.91-.12,7.37-.15a17.33,17.33,0,0,0,2.69-.22,1.66,1.66,0,0,0,1.07-1.53C71.14,6.53,68.51,7.15,67,7.14Z" transform="translate(0 0)"/></g><g class="cls-4"><path class="cls-2" d="M105.7,55a1.52,1.52,0,0,0-1.52-1.52,1.34,1.34,0,0,0-.35,0,1.66,1.66,0,0,0-1.15,1.24,2.15,2.15,0,0,0-.32,2.51c-.11,1.69-.18,3.39-.24,5.08-.16,3.34-.43,6.67-.64,10-.07,1.17-.09,2.35-.13,3.53a4.64,4.64,0,0,0,.14,1.7,1.67,1.67,0,0,0,3.22-.59,108.37,108.37,0,0,1,.37-12.74c.12-2.15.13-4.3.27-6.45A2.1,2.1,0,0,0,105.7,55Z" transform="translate(0 0)"/></g></svg>