<svg id="Layer_1" data-name="Layer 1" xmlns="http://www.w3.org/2000/svg" viewBox="0 0 138.7 129.52"><defs><style>.cls-1{fill:#f4b183;}.cls-2{fill:#7c3c0c;}.cls-3{fill:#fbe5d6;}.cls-4{opacity:0.13;}</style></defs><title>courses</title><rect class="cls-1" x="59.57" y="102.98" width="19.63" height="25.67"/><path class="cls-2" d="M149.06,175.11H129.44a.87.87,0,0,1-.87-.87V148.57a.87.87,0,0,1,.87-.87h19.62a.87.87,0,0,1,.87.87v25.67A.87.87,0,0,1,149.06,175.11Zm-18.75-1.74h17.88V149.44H130.31Z" transform="translate(-69.87 -45.59)"/><path class="cls-2" d="M168.26,175.11H110.12a.87.87,0,0,1,0-1.74h58.14a.87.87,0,0,1,0,1.74Z" transform="translate(-69.87 -45.59)"/><rect class="cls-3" x="0.93" y="12.8" width="136.9" height="94.78"/><path class="cls-2" d="M207.7,154H70.8a.87.87,0,0,1-.87-.87V58.39a.87.87,0,0,1,.87-.87H207.7a.87.87,0,0,1,.87.87v94.78A.87.87,0,0,1,207.7,154Zm-136-1.74H206.83v-93H71.67Z" transform="translate(-69.87 -45.59)"/><rect class="cls-1" x="0.87" y="95.74" width="136.9" height="12.51"/><path class="cls-2" d="M207.64,154.71H70.74a.87.87,0,0,1-.87-.87V141.33a.87.87,0,0,1,.87-.87h136.9a.87.87,0,0,1,.87.87v12.51A.87.87,0,0,1,207.64,154.71ZM71.61,153H206.77V142.2H71.61Z" transform="translate(-69.87 -45.59)"/><g class="cls-4"><rect class="cls-2" x="60.33" y="108.13" width="19.63" height="4.06"/></g><path class="cls-3" d="M161.58,124.85a3.07,3.07,0,1,1,3.07,3.07A3.07,3.07,0,0,1,161.58,124.85Z" transform="translate(-69.87 -45.59)"/><path class="cls-2" d="M164.65,128.79a3.94,3.94,0,1,1,3.94-3.94A3.95,3.95,0,0,1,164.65,128.79Zm0-6.14a2.2,2.2,0,1,0,2.2,2.2A2.21,2.21,0,0,0,164.65,122.65Z" transform="translate(-69.87 -45.59)"/><path class="cls-3" d="M176.45,124.85a3.08,3.08,0,1,1,3.07,3.07A3.08,3.08,0,0,1,176.45,124.85Z" transform="translate(-69.87 -45.59)"/><path class="cls-2" d="M179.52,128.79a3.94,3.94,0,1,1,3.95-3.94A3.95,3.95,0,0,1,179.52,128.79Zm0-6.14a2.2,2.2,0,1,0,2.21,2.2A2.21,2.21,0,0,0,179.52,122.65Z" transform="translate(-69.87 -45.59)"/><path class="cls-3" d="M191.33,124.85a3.07,3.07,0,1,1,3.07,3.07A3.07,3.07,0,0,1,191.33,124.85Z" transform="translate(-69.87 -45.59)"/><path class="cls-2" d="M194.4,128.79a3.94,3.94,0,1,1,3.94-3.94A3.94,3.94,0,0,1,194.4,128.79Zm0-6.14a2.2,2.2,0,1,0,2.2,2.2A2.2,2.2,0,0,0,194.4,122.65Z" transform="translate(-69.87 -45.59)"/><g class="cls-4"><path class="cls-2" d="M168.69,127.49a1.78,1.78,0,0,0-3-.4h0l-.34.22h0c-.14,0-.29.09-.44.12h-.26l-.21,0c-.16,0-.28-.09-.35-.11l-.27-.15a1.63,1.63,0,0,0-.38-.3,1.82,1.82,0,0,0-2.74,2c.43,1.25,1.92,1.8,3.1,2.08C165.59,131.42,169.63,129.84,168.69,127.49Z" transform="translate(-69.87 -45.59)"/></g><g class="cls-4"><path class="cls-2" d="M184,127.34a1.67,1.67,0,0,0-2.7-.54l-.28.26-.09.06a2.68,2.68,0,0,1-1.34.31l-.33,0a2.75,2.75,0,0,1-.34-.1,5.21,5.21,0,0,1-.52-.28l-.08,0a1.57,1.57,0,0,0-.64-.44,1.62,1.62,0,0,0-1.77,2.62,5.65,5.65,0,0,0,5.6,1.32C182.74,130.06,184.65,128.92,184,127.34Z" transform="translate(-69.87 -45.59)"/></g><g class="cls-4"><path class="cls-2" d="M198.74,127.66a1.64,1.64,0,0,0-2.65-.73,2.31,2.31,0,0,1-.35.18l-.18.07-.4.14-.2,0a2.94,2.94,0,0,1-.42,0,2.61,2.61,0,0,1-1-.35c-.72-.38-1.49-1-2.36-.77a1.58,1.58,0,0,0-.37,2.86,18.81,18.81,0,0,0,2,1,6.51,6.51,0,0,0,2.56.34C196.83,130.42,199.2,129.55,198.74,127.66Z" transform="translate(-69.87 -45.59)"/></g><path class="cls-3" d="M102.51,73c.06,11.73-.36,23.47-1,35.68,6.24,5.41,14.76,7.82,23,7.51s16.28-3.2,23.92-8c0-11.57-.05-23.14.16-35-13.16-3.86-27.24-2.85-40.8-.75C106.45,72.59,105.08,72.81,102.51,73Z" transform="translate(-69.87 -45.59)"/><path class="cls-2" d="M123.12,117.07c-8.43,0-16.44-2.78-22.16-7.75a.82.82,0,0,1-.3-.7c.73-14.33,1-25.31,1-35.63a.87.87,0,0,1,.81-.87,49.71,49.71,0,0,0,5-.58l.19,0c11.74-1.82,27-3.37,41.18.78a.85.85,0,0,1,.62.85c-.21,11.89-.19,23.65-.16,35a.86.86,0,0,1-.41.74c-8.09,5.09-16.28,7.83-24.34,8.13Zm-20.7-8.79c5.71,4.79,13.73,7.35,22.09,7,7.62-.29,15.38-2.86,23.08-7.62,0-11-.05-22.39.15-33.91-13.65-3.82-28.4-2.31-39.78-.55l-.19,0c-1.18.19-2.39.38-4.39.54C103.42,83.81,103.12,94.5,102.42,108.28Z" transform="translate(-69.87 -45.59)"/><path class="cls-3" d="M91.12,92.25C88,95.63,87.3,99.86,87.33,103.8l7.53-.1C94.61,99.6,94.12,95.39,91.12,92.25Z" transform="translate(-69.87 -45.59)"/><path class="cls-2" d="M87.33,104.67a.87.87,0,0,1-.87-.87c0-5.16,1.28-9.13,4-12.13a.85.85,0,0,1,.63-.29,1,1,0,0,1,.64.27c3.2,3.35,3.72,7.76,4,12a.89.89,0,0,1-.23.64.84.84,0,0,1-.63.28l-7.53.1Zm3.8-11.08a15.37,15.37,0,0,0-2.92,9.33l5.72-.08C93.69,99.54,93.17,96.2,91.13,93.59Z" transform="translate(-69.87 -45.59)"/><polygon class="cls-1" points="55.16 0.87 12.2 22.94 55.87 44.21 97.65 21.69 55.16 0.87"/><path class="cls-2" d="M125.74,90.67a1,1,0,0,1-.38-.08L81.69,69.32a.87.87,0,0,1-.49-.78.86.86,0,0,1,.47-.78l43-22.07a.86.86,0,0,1,.78,0L167.9,66.5a.88.88,0,0,1,.49.77.87.87,0,0,1-.46.78L126.15,90.57A.86.86,0,0,1,125.74,90.67ZM84,68.51l41.71,20.32,39.9-21.51L125,47.43Z" transform="translate(-69.87 -45.59)"/><path class="cls-2" d="M91.41,90a.86.86,0,0,1-.86-.81c-.52-8.38,5.78-15.4,12.26-18.63,7.11-3.55,15.31-4,22.44-4.1a.89.89,0,0,1,.88.86.86.86,0,0,1-.86.88c-6.93.12-14.9.53-21.68,3.91-6,3-11.77,9.38-11.31,17a.86.86,0,0,1-.81.92Z" transform="translate(-69.87 -45.59)"/><path class="cls-3" d="M91.61,88.3a3.37,3.37,0,0,0-2.81,1,3.85,3.85,0,0,0-1.07,2.63A2.92,2.92,0,0,0,87.87,93a3,3,0,0,0,2.29,1.81,4.44,4.44,0,0,0,3-.58,2.75,2.75,0,0,0,1-1,3.08,3.08,0,0,0,.32-1.53,3.64,3.64,0,0,0-.38-1.92A3.46,3.46,0,0,0,91.61,88.3Z" transform="translate(-69.87 -45.59)"/><path class="cls-2" d="M90.88,95.7a4.4,4.4,0,0,1-.89-.08,3.86,3.86,0,0,1-2.94-2.38,3.92,3.92,0,0,1-.19-1.37,4.69,4.69,0,0,1,1.32-3.21,4.21,4.21,0,0,1,3.55-1.22h0a4.29,4.29,0,0,1,3.15,1.9,4.44,4.44,0,0,1,.5,2.38A4,4,0,0,1,95,93.66a3.55,3.55,0,0,1-1.33,1.27A5.34,5.34,0,0,1,90.88,95.7Zm.3-6.56a2.53,2.53,0,0,0-1.76.74,3,3,0,0,0-.82,2,2,2,0,0,0,.1.76,2.11,2.11,0,0,0,1.62,1.23,3.49,3.49,0,0,0,2.41-.47,2.06,2.06,0,0,0,.71-.64,2.4,2.4,0,0,0,.2-1.11,2.9,2.9,0,0,0-.26-1.47,2.69,2.69,0,0,0-1.9-1.06h0A1.42,1.42,0,0,0,91.18,89.14Z" transform="translate(-69.87 -45.59)"/><path class="cls-2" d="M144.26,107.66h0a.28.28,0,0,1-.28-.29l.41-23.89a.3.3,0,0,1,.29-.29.3.3,0,0,1,.29.3l-.41,23.89A.28.28,0,0,1,144.26,107.66Z" transform="translate(-69.87 -45.59)"/><path class="cls-2" d="M140.1,109.48h0a.29.29,0,0,1-.27-.31c.35-7.77.54-15.66.58-23.45a.29.29,0,0,1,.29-.29h0a.29.29,0,0,1,.29.29c0,7.8-.23,15.7-.58,23.48A.29.29,0,0,1,140.1,109.48Z" transform="translate(-69.87 -45.59)"/><path class="cls-2" d="M136.37,111.46h0a.29.29,0,0,1-.29-.29l.13-23a.29.29,0,0,1,.29-.29h0a.29.29,0,0,1,.29.29l-.13,23A.29.29,0,0,1,136.37,111.46Z" transform="translate(-69.87 -45.59)"/><path class="cls-2" d="M132.48,113h0a.29.29,0,0,1-.29-.29l.13-22.7a.29.29,0,0,1,.29-.29h0a.31.31,0,0,1,.29.3l-.13,22.69A.29.29,0,0,1,132.48,113Z" transform="translate(-69.87 -45.59)"/><path class="cls-2" d="M128.29,113.56a.28.28,0,0,1-.29-.28c-.07-7.1-.19-14.28-.36-21.37a.28.28,0,0,1,.28-.3.28.28,0,0,1,.3.28c.17,7.09.29,14.29.36,21.38a.29.29,0,0,1-.29.29Z" transform="translate(-69.87 -45.59)"/><path class="cls-2" d="M123.29,114.1h0a.29.29,0,0,1-.29-.29l.07-22a.29.29,0,0,1,.29-.29h0a.29.29,0,0,1,.29.29l-.07,22A.29.29,0,0,1,123.29,114.1Z" transform="translate(-69.87 -45.59)"/><path class="cls-2" d="M119,113.29h0a.29.29,0,0,1-.29-.29l.15-22.79a.28.28,0,0,1,.29-.28h0a.29.29,0,0,1,.29.29L119.25,113A.29.29,0,0,1,119,113.29Z" transform="translate(-69.87 -45.59)"/><path class="cls-2" d="M115,112.61a.29.29,0,0,1-.29-.28c-.2-3.51-.18-7.08-.17-10.53a134.63,134.63,0,0,0-.4-13.6.29.29,0,0,1,.26-.32.28.28,0,0,1,.31.26,133.11,133.11,0,0,1,.41,13.66c0,3.45,0,7,.17,10.5a.29.29,0,0,1-.27.31Z" transform="translate(-69.87 -45.59)"/><path class="cls-2" d="M110.72,110.86a.28.28,0,0,1-.29-.28c-.33-8.11-.4-16.34-.21-24.45a.28.28,0,0,1,.3-.28.28.28,0,0,1,.28.29c-.19,8.1-.12,16.32.21,24.42a.29.29,0,0,1-.28.3Z" transform="translate(-69.87 -45.59)"/><path class="cls-2" d="M106.27,108.2a.29.29,0,0,1-.29-.28c-.16-8.14-.17-16.39,0-24.54a.27.27,0,0,1,.29-.28.29.29,0,0,1,.29.29c-.14,8.14-.13,16.39,0,24.52a.29.29,0,0,1-.29.29Z" transform="translate(-69.87 -45.59)"/><g class="cls-4"><path class="cls-2" d="M149,79.23a1.75,1.75,0,0,0-3.09-.86l-.13,0A68.72,68.72,0,0,0,135,84.48c-2.9,1.59-5.75,3.27-8.65,4.86-.43-.22-.93-.33-1.37-.52l-.06,0-4.82-2.27c-3.11-1.45-6.21-2.92-9.23-4.57-2.11-1.07-4.36-1.85-6.38-3.09a1.74,1.74,0,0,0-1.75,3c2,1.3,4.19,2.09,6.27,3.19,4,2.25,6.19,3,10,5,1.35.58,1.69.66,3.81,1.71a11.62,11.62,0,0,0,2.41,1,1.75,1.75,0,0,0,1.64,0c6.55-3.51,15.56-8,20.49-11.57A1.71,1.71,0,0,0,149,79.23Z" transform="translate(-69.87 -45.59)"/></g><path class="cls-2" d="M194.41,84.26H169.34a.87.87,0,0,1,0-1.74h25.07a.87.87,0,0,1,0,1.74Z" transform="translate(-69.87 -45.59)"/><path class="cls-2" d="M194.47,96.52H169.41a.87.87,0,0,1,0-1.74h25.06a.87.87,0,1,1,0,1.74Z" transform="translate(-69.87 -45.59)"/><g class="cls-4"><path class="cls-2" d="M148.91,108.64a2.16,2.16,0,0,0-2.8.61,53,53,0,0,1-5.75,3.2c-2.67,1-5.39,1.93-8.15,2.67-2.59.58-6.35,1.16-7.52,1.3a38.28,38.28,0,0,1-7.28-.35,41.49,41.49,0,0,1-7.41-2.24c-4.39-2-3.64-2.35-7.32-5.18a2.16,2.16,0,0,0-2.62,3.39c1.41,1.16,2.37,2.77,4,3.72a33.26,33.26,0,0,0,11.43,4,58.51,58.51,0,0,0,9.1.23c2.46-.16,3.68-.5,4.36-.56a40.8,40.8,0,0,0,9.13-2.06,34.28,34.28,0,0,0,8.3-3.51,24.26,24.26,0,0,0,2.49-1.51,2.13,2.13,0,0,0,.07-3.69Z" transform="translate(-69.87 -45.59)"/></g></svg>