<svg id="Layer_1" data-name="Layer 1" xmlns="http://www.w3.org/2000/svg" viewBox="0 0 131.53 129.02"><defs><style>.cls-1{fill:#fbe5d6;}.cls-2{fill:#7c3c0c;}.cls-3{fill:#f4b183;}.cls-4{opacity:0.13;}</style></defs><title>education</title><rect class="cls-1" x="6.89" y="47.1" width="123.76" height="81.05"/><path class="cls-2" d="M1283.25,175.11H1159.49a.87.87,0,0,1-.87-.87V93.19a.87.87,0,0,1,.87-.87h123.76a.87.87,0,0,1,.87.87v81.05A.87.87,0,0,1,1283.25,175.11Zm-122.89-1.74h122V94.06h-122Z" transform="translate(-1152.59 -46.09)"/><rect class="cls-3" x="114.15" y="47.1" width="16.51" height="81.05"/><path class="cls-2" d="M1283.25,175.11h-16.51a.87.87,0,0,1-.87-.87V93.19a.87.87,0,0,1,.87-.87h16.51a.87.87,0,0,1,.87.87v81.05A.87.87,0,0,1,1283.25,175.11Zm-15.64-1.74h14.77V94.06h-14.77Z" transform="translate(-1152.59 -46.09)"/><rect class="cls-3" x="0.87" y="47.1" width="9.66" height="81.05"/><path class="cls-2" d="M1163.12,175.11h-9.66a.87.87,0,0,1-.87-.87V93.19a.87.87,0,0,1,.87-.87h9.66a.87.87,0,0,1,.87.87v81.05A.87.87,0,0,1,1163.12,175.11Zm-8.79-1.74h7.92V94.06h-7.92Z" transform="translate(-1152.59 -46.09)"/><path class="cls-1" d="M1195.33,73.49c.06,11.73-.36,23.47-1,35.67,6.25,5.42,14.76,7.83,23,7.51s16.27-3.19,23.92-8c0-11.57-.06-23.14.16-35-13.16-3.86-27.25-2.85-40.8-.76A51.81,51.81,0,0,1,1195.33,73.49Z" transform="translate(-1152.59 -46.09)"/><path class="cls-2" d="M1215.94,117.57c-8.43,0-16.44-2.78-22.17-7.75a.88.88,0,0,1-.3-.7c.74-14.33,1-25.31,1-35.63a.87.87,0,0,1,.81-.87c2.41-.17,3.75-.37,5-.57l.2,0c11.73-1.81,27-3.37,41.18.78a.87.87,0,0,1,.62.85c-.22,11.9-.19,23.66-.16,35a.89.89,0,0,1-.41.74c-8.09,5.09-16.28,7.83-24.35,8.13C1216.91,117.56,1216.42,117.57,1215.94,117.57Zm-20.71-8.79c5.71,4.79,13.74,7.35,22.1,7,7.62-.29,15.38-2.85,23.07-7.61,0-11,0-22.4.16-33.91-13.65-3.82-28.41-2.31-39.79-.55l-.19,0c-1.18.19-2.39.37-4.38.54C1196.24,84.3,1195.94,95,1195.23,108.78Z" transform="translate(-1152.59 -46.09)"/><path class="cls-1" d="M1183.94,92.75c-3.09,3.38-3.82,7.61-3.79,11.54l7.53-.09C1187.43,100.1,1186.94,95.89,1183.94,92.75Z" transform="translate(-1152.59 -46.09)"/><path class="cls-2" d="M1180.15,105.16a.85.85,0,0,1-.61-.24.87.87,0,0,1-.26-.62c0-5.16,1.27-9.13,4-12.14a.92.92,0,0,1,.64-.28.89.89,0,0,1,.63.27c3.21,3.35,3.73,7.76,4,12a.9.9,0,0,1-.23.65.94.94,0,0,1-.63.28l-7.53.09Zm3.8-11.07a15.28,15.28,0,0,0-2.93,9.32l5.73-.07C1186.51,100,1186,96.7,1184,94.09Z" transform="translate(-1152.59 -46.09)"/><polygon class="cls-3" points="65.25 0.87 22.29 22.95 65.97 44.21 107.74 21.69 65.25 0.87"/><path class="cls-2" d="M1218.56,91.17a.85.85,0,0,1-.38-.09L1174.5,69.82A.91.91,0,0,1,1174,69a.86.86,0,0,1,.48-.78l43-22.07a.88.88,0,0,1,.79,0L1260.72,67a.88.88,0,0,1,.49.76.89.89,0,0,1-.46.79L1219,91.07A.86.86,0,0,1,1218.56,91.17ZM1176.83,69l41.71,20.31,39.89-21.5-40.58-19.89Z" transform="translate(-1152.59 -46.09)"/><path class="cls-2" d="M1184.23,90.54a.87.87,0,0,1-.87-.81c-.51-8.39,5.79-15.4,12.27-18.63,7.1-3.55,15.3-4,22.43-4.1a.86.86,0,0,1,.89.85.88.88,0,0,1-.86.89c-6.94.12-14.91.53-21.69,3.91-6,3-11.77,9.38-11.3,17a.87.87,0,0,1-.81.92Z" transform="translate(-1152.59 -46.09)"/><path class="cls-1" d="M1184.43,88.8a3.39,3.39,0,0,0-2.82,1,3.84,3.84,0,0,0-1.06,2.63,3,3,0,0,0,.14,1.06,3,3,0,0,0,2.28,1.81,4.41,4.41,0,0,0,3-.58,2.78,2.78,0,0,0,1-1,3.08,3.08,0,0,0,.32-1.53,3.64,3.64,0,0,0-.38-1.92A3.49,3.49,0,0,0,1184.43,88.8Z" transform="translate(-1152.59 -46.09)"/><path class="cls-2" d="M1183.7,96.2a4.4,4.4,0,0,1-.89-.08,3.86,3.86,0,0,1-2.94-2.38,3.67,3.67,0,0,1-.19-1.37,4.68,4.68,0,0,1,1.32-3.21,4.21,4.21,0,0,1,3.55-1.22,4.31,4.31,0,0,1,3.15,1.9,4.52,4.52,0,0,1,.5,2.37,4,4,0,0,1-.43,2,3.63,3.63,0,0,1-1.33,1.27A5.36,5.36,0,0,1,1183.7,96.2Zm.3-6.56a2.57,2.57,0,0,0-1.77.74,3,3,0,0,0-.81,2,2.08,2.08,0,0,0,.09.75,2.15,2.15,0,0,0,1.63,1.24,3.5,3.5,0,0,0,2.41-.47,2.06,2.06,0,0,0,.71-.64,2.56,2.56,0,0,0,.2-1.11,3,3,0,0,0-.26-1.47,2.71,2.71,0,0,0-1.9-1.06h0A1.51,1.51,0,0,0,1184,89.64Z" transform="translate(-1152.59 -46.09)"/><path class="cls-2" d="M1237.08,108.16h0a.28.28,0,0,1-.28-.29l.4-23.9a.31.31,0,0,1,.3-.28.28.28,0,0,1,.28.29l-.4,23.9A.3.3,0,0,1,1237.08,108.16Z" transform="translate(-1152.59 -46.09)"/><path class="cls-2" d="M1232.91,110h0a.28.28,0,0,1-.27-.3c.35-7.77.54-15.66.57-23.45a.29.29,0,0,1,.29-.29h0a.28.28,0,0,1,.28.29c0,7.8-.22,15.69-.58,23.48A.29.29,0,0,1,1232.91,110Z" transform="translate(-1152.59 -46.09)"/><path class="cls-2" d="M1229.19,112h0a.29.29,0,0,1-.29-.29l.13-23a.29.29,0,0,1,.29-.29h0a.29.29,0,0,1,.29.29l-.13,23A.29.29,0,0,1,1229.19,112Z" transform="translate(-1152.59 -46.09)"/><path class="cls-2" d="M1225.3,113.48h0a.29.29,0,0,1-.29-.29l.12-22.7a.3.3,0,0,1,.29-.29h0a.29.29,0,0,1,.28.3l-.12,22.69A.29.29,0,0,1,1225.3,113.48Z" transform="translate(-1152.59 -46.09)"/><path class="cls-2" d="M1221.11,114.06a.29.29,0,0,1-.29-.29c-.07-7.1-.2-14.29-.37-21.36a.3.3,0,0,1,.29-.3.28.28,0,0,1,.29.28c.17,7.08.3,14.27.37,21.38a.29.29,0,0,1-.29.29Z" transform="translate(-1152.59 -46.09)"/><path class="cls-2" d="M1216.11,114.6h0a.29.29,0,0,1-.28-.3l.06-22a.28.28,0,0,1,.29-.28h0a.29.29,0,0,1,.29.29l-.06,22A.29.29,0,0,1,1216.11,114.6Z" transform="translate(-1152.59 -46.09)"/><path class="cls-2" d="M1211.78,113.79h0a.29.29,0,0,1-.29-.29l.14-22.79a.29.29,0,0,1,.29-.29h0a.31.31,0,0,1,.29.3l-.14,22.78A.29.29,0,0,1,1211.78,113.79Z" transform="translate(-1152.59 -46.09)"/><path class="cls-2" d="M1207.82,113.11a.29.29,0,0,1-.29-.28c-.2-3.51-.19-7.08-.17-10.53a131.78,131.78,0,0,0-.41-13.6.3.3,0,0,1,.26-.32.29.29,0,0,1,.32.26,133.11,133.11,0,0,1,.41,13.66c0,3.45,0,7,.17,10.5a.28.28,0,0,1-.28.3Z" transform="translate(-1152.59 -46.09)"/><path class="cls-2" d="M1203.53,111.36a.29.29,0,0,1-.29-.28c-.32-8.1-.39-16.33-.2-24.45a.28.28,0,0,1,.29-.29.31.31,0,0,1,.29.3c-.19,8.11-.12,16.32.2,24.42a.28.28,0,0,1-.28.3Z" transform="translate(-1152.59 -46.09)"/><path class="cls-2" d="M1199.09,108.7a.29.29,0,0,1-.29-.28c-.16-8.15-.17-16.4,0-24.54a.3.3,0,0,1,.3-.28.28.28,0,0,1,.28.29c-.13,8.13-.12,16.38,0,24.51a.3.3,0,0,1-.29.3Z" transform="translate(-1152.59 -46.09)"/><g class="cls-4"><path class="cls-2" d="M1241.86,79.73a1.75,1.75,0,0,0-3.09-.86l-.13,0A69.58,69.58,0,0,0,1227.78,85c-2.9,1.59-5.75,3.27-8.66,4.86-.42-.22-.92-.33-1.37-.52l-.06,0L1212.88,87c-3.12-1.45-6.21-2.92-9.23-4.57-2.11-1.07-4.36-1.85-6.38-3.09a1.73,1.73,0,0,0-1.75,3,69.55,69.55,0,0,0,6.26,3.2c4,2.25,6.19,3,10.06,5,1.34.58,1.69.65,3.81,1.71a11.18,11.18,0,0,0,2.41,1,1.75,1.75,0,0,0,1.64,0c6.55-3.51,15.56-8,20.49-11.57A1.71,1.71,0,0,0,1241.86,79.73Z" transform="translate(-1152.59 -46.09)"/></g><path class="cls-2" d="M1275,140.25a.87.87,0,0,1-.87-.87V128.05a.87.87,0,1,1,1.74,0v11.33A.87.87,0,0,1,1275,140.25Z" transform="translate(-1152.59 -46.09)"/><path class="cls-2" d="M1247.61,134.1h-33.93a.87.87,0,1,1,0-1.74h33.93a.87.87,0,0,1,0,1.74Z" transform="translate(-1152.59 -46.09)"/><path class="cls-2" d="M1226.46,147H1181a.87.87,0,0,1,0-1.74h45.42a.87.87,0,1,1,0,1.74Z" transform="translate(-1152.59 -46.09)"/><path class="cls-2" d="M1200.61,134.1h-19.88a.87.87,0,1,1,0-1.74h19.88a.87.87,0,0,1,0,1.74Z" transform="translate(-1152.59 -46.09)"/><path class="cls-2" d="M1214.17,159.87h-33.93a.87.87,0,1,1,0-1.74h33.93a.87.87,0,1,1,0,1.74Z" transform="translate(-1152.59 -46.09)"/><g class="cls-4"><path class="cls-2" d="M1242.89,109.51c-1.65-1.41-2.78.08-4,1.18a1.63,1.63,0,0,0-1.61,0c-5,2.89-8.2,4.46-14.13,5.43-.72.23-5.6.5-6.31.85a1.64,1.64,0,0,0-.75.54,28.63,28.63,0,0,1-12.44-3c-1.94-.93-1.37-.62-2.45-1.09a20.11,20.11,0,0,1-4-2.59c-.61-.41-1.17-1.06-2-1.1a2,2,0,0,0-1.29,3.73l.16.1.06,0A27.06,27.06,0,0,0,1199,117c1.24.55,2.39,1.28,3.66,1.78l0,0,.14.06-.12-.05.18.08a24.29,24.29,0,0,0,6.24,2.1,45.19,45.19,0,0,0,18.42-.46,30.78,30.78,0,0,0,5.71-1.95,21.85,21.85,0,0,0,5.51-3.15,29.51,29.51,0,0,0,3.62-2.88l.09-.08-.14.1.25-.2h0l.19-.15-.38.3a5,5,0,0,0,.43-.34A1.93,1.93,0,0,0,1242.89,109.51Z" transform="translate(-1152.59 -46.09)"/></g><g class="cls-4"><path class="cls-2" d="M1202.71,118.83h0l0,0Z" transform="translate(-1152.59 -46.09)"/></g><g class="cls-4"><path class="cls-2" d="M1242.53,112.51a.46.46,0,0,0,.12-.1h0Z" transform="translate(-1152.59 -46.09)"/></g><g class="cls-4"><path class="cls-2" d="M1202.71,118.83l0,0h0Z" transform="translate(-1152.59 -46.09)"/></g></svg>