<svg id="Layer_1" data-name="Layer 1" xmlns="http://www.w3.org/2000/svg" viewBox="0 0 164.67 90.35"><defs><style>.cls-1{fill:#fbe5d6;}.cls-2{fill:#7c3c0c;}.cls-3{fill:#f4b183;}.cls-4{opacity:0.13;}</style></defs><title>experience</title><path class="cls-1" d="M88.07,261.71c-6,16.73-12,33.49-16,51.05a36.28,36.28,0,0,0,9.56,1.84l3.69-12.92a1.23,1.23,0,0,0-.41-.18A14.21,14.21,0,0,1,91.43,305a39.11,39.11,0,0,1,5.15,5.93,5.82,5.82,0,0,0,3.9,5.6,8,8,0,0,0,7.08-1.11,8.22,8.22,0,0,0,0,3.24A5.21,5.21,0,0,0,108,320a4.81,4.81,0,0,0,2.16,2,8,8,0,0,0,5.06.72,4.84,4.84,0,0,0,3.26,4.67,8.87,8.87,0,0,0,6.09-.38,5.28,5.28,0,0,0,1.2,1.93,4.21,4.21,0,0,0,2.37.94,9.78,9.78,0,0,0,6.1-1.5,7.56,7.56,0,0,0,6.91.12,5,5,0,0,0,2.85-4.6,31,31,0,0,0-.22-3.83,15.87,15.87,0,0,0,3.55,3.3,6.09,6.09,0,0,0,4.66.88,5.55,5.55,0,0,0,3.12-2.43,8.5,8.5,0,0,0,1.19-4,23.92,23.92,0,0,0,1.72,2.49,9.3,9.3,0,0,0,2,2,4,4,0,0,0,2.68.75,4.28,4.28,0,0,0,3.21-2.7,12.48,12.48,0,0,0,.76-4.3,24.25,24.25,0,0,0,.06-2.56,27,27,0,0,0,2.56,4.18,8.77,8.77,0,0,0,3.86,2.93,11.83,11.83,0,0,0,1.16.34,2.32,2.32,0,0,0,1.9-.08,1.89,1.89,0,0,0,.67-1.37,3.77,3.77,0,0,1,.33-1.58c5.86-2.2,11.63-4.66,17.22-7.3a47.94,47.94,0,0,0,2,6.07,52.28,52.28,0,0,0,12-4.41,53.79,53.79,0,0,0,9.53-4.54c-.48-16.56-3.3-33.35-10.87-48.09a10.78,10.78,0,0,0-1.74-2.64,174.73,174.73,0,0,0-24.19,10.54,2.75,2.75,0,0,1,.43,1.31c-8.06.57-15.95-2.15-23.56-4.85a28.38,28.38,0,0,0-7.43-1.89,47.73,47.73,0,0,0-7.08.46,34.13,34.13,0,0,0-8.75-3.52,20.42,20.42,0,0,0-5.62-.94A19.31,19.31,0,0,0,124,259c-9,2.64-17.46,7.51-26.83,8.38.07-.63.14-1.26.22-1.89a1.44,1.44,0,0,0-.12-1A35.85,35.85,0,0,0,88.07,261.71Z" transform="translate(-54.2 -240.97)"/><path class="cls-2" d="M213.63,307.34l-.09,0-8.26-3.11a.26.26,0,1,1,.18-.48l8.26,3.11a.26.26,0,0,1,.15.33A.27.27,0,0,1,213.63,307.34Z" transform="translate(-54.2 -240.97)"/><path class="cls-2" d="M216.42,304.24l-.08,0A125,125,0,0,1,203,298.79a.25.25,0,1,1,.22-.46,126,126,0,0,0,13.33,5.41.25.25,0,0,1,.16.33A.25.25,0,0,1,216.42,304.24Z" transform="translate(-54.2 -240.97)"/><path class="cls-2" d="M217.13,299.37l-.08,0c-5.06-1.65-10.1-3.53-15-5.6a.26.26,0,0,1-.14-.33.27.27,0,0,1,.34-.14c4.88,2.06,9.91,3.94,14.95,5.59a.26.26,0,0,1,.17.32A.26.26,0,0,1,217.13,299.37Z" transform="translate(-54.2 -240.97)"/><path class="cls-2" d="M217.13,294.69l-.09,0c-5.89-2.21-10.45-4.11-16.73-6.76a.24.24,0,0,1-.13-.33.25.25,0,0,1,.33-.14c6.27,2.65,10.82,4.55,16.7,6.76a.25.25,0,0,1-.08.49Z" transform="translate(-54.2 -240.97)"/><path class="cls-2" d="M215.66,289.41l-.09,0-16.87-6.88a.26.26,0,0,1-.14-.33.25.25,0,0,1,.33-.14l16.87,6.88a.25.25,0,0,1,.14.33A.26.26,0,0,1,215.66,289.41Z" transform="translate(-54.2 -240.97)"/><path class="cls-2" d="M215.12,284.36a.23.23,0,0,1-.11,0l-18.32-8.11a.26.26,0,0,1,.21-.47l18.32,8.12a.25.25,0,0,1,.13.33A.26.26,0,0,1,215.12,284.36Z" transform="translate(-54.2 -240.97)"/><path class="cls-2" d="M213.33,278a.19.19,0,0,1-.1,0l-18.49-8.31a.25.25,0,0,1-.13-.33.26.26,0,0,1,.34-.13l18.49,8.31a.26.26,0,0,1,.12.34A.25.25,0,0,1,213.33,278Z" transform="translate(-54.2 -240.97)"/><path class="cls-2" d="M209.18,269.7l-.09,0c-4.6-1.77-9.28-3.47-13.93-5.06a.26.26,0,0,1-.16-.32.27.27,0,0,1,.33-.16c4.65,1.59,9.34,3.29,13.94,5.06a.26.26,0,0,1-.09.5Z" transform="translate(-54.2 -240.97)"/><path class="cls-2" d="M208.81,263.85a.18.18,0,0,1-.1,0l-6.6-2.75a.25.25,0,0,1-.13-.33.25.25,0,0,1,.33-.14l6.6,2.75a.26.26,0,0,1,.13.34A.25.25,0,0,1,208.81,263.85Z" transform="translate(-54.2 -240.97)"/><path class="cls-3" d="M68.93,255.55c6.52,2.19,13.11,4.17,19.4,6.06-1,4.34-3.68,8.11-5.46,12.21a62.58,62.58,0,0,0-2.33,6.71q-4.86,15.95-9.31,32a100.76,100.76,0,0,0-16.56-4.12C60.41,290.55,65.59,273.39,68.93,255.55Z" transform="translate(-54.2 -240.97)"/><g class="cls-4"><path class="cls-2" d="M192.09,308.39a28,28,0,0,0-3,1.08,2.89,2.89,0,0,0-.66,0A8,8,0,0,0,187,310c-.51.18-1,.35-1.5.56-.2.07-.8.3-1,.36l-.18.06a3.19,3.19,0,0,1-.44.13h-.27l-.3-.07h0a5.86,5.86,0,0,1-.59-.63c-.25-.32,0,0,.12.16a7.91,7.91,0,0,0-.52-.63l-.14-.17c-.17-.23-.32-.48-.48-.72a32,32,0,0,1-1.77-3.06c-1.14-2.21-2.19-4.47-3.41-6.65a42.06,42.06,0,0,0-2.19-4.41,48.44,48.44,0,0,0-8.81-10.3,37.07,37.07,0,0,0-8.12-6.19,16,16,0,0,0-6.44-2.38,1.1,1.1,0,1,0-.34,2.16,11.57,11.57,0,0,1,4.92,1.79,1.15,1.15,0,0,0,.27,1.28c1.63,1.42,3.5,2.5,5.19,3.83-.08-.06.86.74,1.05.94s.39.39.58.59a.73.73,0,0,0-.24.57,9,9,0,0,0,1.25,2.19c1.86,2.83,4,5.46,5.63,8.47a39.89,39.89,0,0,1,4.31,13.76c.37,1.73.57,4.9,0,5.81l-.15.16-.12.07-.21.07-.11,0h0a3.18,3.18,0,0,1-.45,0l-.17,0c-.63-.16-.29,0-1.24-.53a1.28,1.28,0,0,0-1.29,2.21c3.61,2.59,6.13,1.67,6.85-1.84a18.62,18.62,0,0,0-.26-6.4c.11.32.22.64.32,1,.21,1.25.38,2.43.55,3.49l-.08.09a1.35,1.35,0,0,0,.47,1.83,1.16,1.16,0,0,0,1.27.47,1.07,1.07,0,0,0,.74-.67,74.52,74.52,0,0,0,11.46-5.42,8.3,8.3,0,0,1,1.57-.87,2.23,2.23,0,0,0,1-.7,1.9,1.9,0,0,0,.48-.46C194.84,308.5,193.18,307.79,192.09,308.39Z" transform="translate(-54.2 -240.97)"/></g><g class="cls-4"><path class="cls-2" d="M217.27,304.32a1.46,1.46,0,0,0-.59.14c-.92.27-1.74.85-2.64,1.18-1.59.78-2.21.92-4.35,1.94-3.68,2-9.79,3.88-13.07,5.25a1.72,1.72,0,0,0,.91,3.31c3.45-1.11,6.7-2.72,10-4.14,1.75-.81,5.09-2,7.85-3.37,1.29-.68,2.9-1.47,3.06-1.87A1.52,1.52,0,0,0,217.27,304.32Z" transform="translate(-54.2 -240.97)"/></g><g class="cls-4"><polygon class="cls-2" points="31.64 60.79 31.64 60.79 31.64 60.79 31.64 60.79"/></g><g class="cls-4"><path class="cls-2" d="M95.46,268.89c-1.4,5.06-3.86,8.79-5.67,14.36a72.49,72.49,0,0,0-2.56,9.94c-.4,1.49-.7,3-1,4.51a11.62,11.62,0,0,0-.38,4.06,2.3,2.3,0,0,0,3,1.53c.75.79,1.55,1.54,2.35,2.28v-.1a44.44,44.44,0,0,1,0-4.47,11,11,0,0,1-.5-2.58c.31-1.65.7-3.27.9-4.94a88.61,88.61,0,0,1,4-15.69c.52-1.53.92-3.1,1.59-4.58.47-1.33,1.25-2.68,1.25-4.11A1.57,1.57,0,0,0,95.46,268.89Z" transform="translate(-54.2 -240.97)"/></g><g class="cls-4"><path class="cls-2" d="M97,309.87a.75.75,0,0,1-.74.56,1.16,1.16,0,0,0,.88.12,1.08,1.08,0,0,0,.79-1.11Z" transform="translate(-54.2 -240.97)"/></g><g class="cls-4"><path class="cls-2" d="M85.84,301.76c0-.2-.06-.4-.08-.6A2.35,2.35,0,0,0,85.84,301.76Z" transform="translate(-54.2 -240.97)"/></g><g class="cls-4"><path class="cls-2" d="M106.3,314c-.59.4-1.39.28-2.93.26a16.06,16.06,0,0,1-3.48-.39c-.75-.17-1.45-.75-2.24-.65a1.38,1.38,0,0,0-.18,2.7,21.46,21.46,0,0,0,3.16,1,6,6,0,0,0,2.78.19,12.18,12.18,0,0,0,3.28-1.29c.42-.27,1-.49,1.14-1A.9.9,0,0,0,106.3,314Z" transform="translate(-54.2 -240.97)"/></g><g class="cls-4"><path class="cls-2" d="M121.91,316c-.51.17-.62.45-1.42.87a12.23,12.23,0,0,1-4.43,1.46,14.6,14.6,0,0,1-4.12.56,13.42,13.42,0,0,1-2.1-.09,3.85,3.85,0,0,0-1.38-.17,1.73,1.73,0,0,0-.23,3.38c4.55,1.33,8.29,0,11.52-1.95a15.88,15.88,0,0,0,2.77-2c.45-.51.57-.42.67-1.11A1,1,0,0,0,121.91,316Z" transform="translate(-54.2 -240.97)"/></g><g class="cls-4"><path class="cls-2" d="M141,325.35c-1,.14-.71.26-1.22.41a10.08,10.08,0,0,1-1.89.63c-1,.18-.95.17-1.21.2a1.08,1.08,0,0,0,.21-.88,1.26,1.26,0,0,0-1.24-1.1c-.75.05-1.32.67-2,.94a23,23,0,0,1-3,1.19,12.45,12.45,0,0,1-3.4.49c-.65,0-1.29-.44-1.89-.51a21.86,21.86,0,0,0,3.43-1.78,17.74,17.74,0,0,0,3.38-2.73,1.08,1.08,0,0,0,.36-.79,1.05,1.05,0,0,0-.51-.9,1.07,1.07,0,0,0-1.26.16l.14-.11c-.51.31-1,.63-1.54.93a26.59,26.59,0,0,1-9.45,3.43,8.51,8.51,0,0,1-1.82.07h-.16a6,6,0,0,0-1.38-.22,1,1,0,0,0-.13,2,12.55,12.55,0,0,0,3,.76,14.47,14.47,0,0,0,3.22-.16,9.61,9.61,0,0,0,1.7-.31,1.32,1.32,0,0,0,.27,2,9.63,9.63,0,0,0,8.52-.14,9.89,9.89,0,0,0,1.46-.72,1.62,1.62,0,0,0,1.6,1.64c1.73-.22,3.59-.32,5-1.36.44-.33,1-.62,1.2-1.16A1.46,1.46,0,0,0,141,325.35Z" transform="translate(-54.2 -240.97)"/></g><g class="cls-4"><path class="cls-2" d="M155,318.92c-1.06.54-.8.64-1.49,1.07a4.63,4.63,0,0,1-2.36,1,4.71,4.71,0,0,1-1.53.18l-.37,0-.42-.09c-.89-.14-1.82-.8-2.68-.28a1.54,1.54,0,0,0,.36,2.78,10.38,10.38,0,0,0,3.57.6,8.65,8.65,0,0,0,4.1-1.44,17.92,17.92,0,0,0,1.67-1.35,1.59,1.59,0,0,0,.76-1.24A1.28,1.28,0,0,0,155,318.92Z" transform="translate(-54.2 -240.97)"/></g><g class="cls-4"><path class="cls-2" d="M167,314.71a1.46,1.46,0,0,0-1.06-1.42h-.1a14.31,14.31,0,0,0-.27-3.58,26,26,0,0,0-2.26-5.09,18.6,18.6,0,0,0-3-4.89.89.89,0,0,0-1.43.7c.05.6.6,1,.88,1.55a19.29,19.29,0,0,1,2.83,6.68,15.14,15.14,0,0,1,.8,7.2v.08c0,.14,0,.27-.08.41a2.22,2.22,0,0,1-.08.28c-.15.25-.31.48-.47.72s-.63.74-.87,1l-.16.1a4.58,4.58,0,0,1-2.07-.39c-.36-.13-.43-.17,0,0a12,12,0,0,0-1.86-.77,1.4,1.4,0,0,0-.9,2.59c.46.24,1,.47,1.42.67a1.69,1.69,0,0,0,.83,1.19,2.07,2.07,0,0,0,.34.15,1.51,1.51,0,0,0,1.15,1.39,4.14,4.14,0,0,0,1.94.2,4.64,4.64,0,0,0,.75-.27,3,3,0,0,0,1.62-1.34,1.32,1.32,0,0,0,.07-1,1.48,1.48,0,0,0,.42-.94,7.81,7.81,0,0,0,1.37-2.88,13.46,13.46,0,0,0,.24-2.19v-.11Z" transform="translate(-54.2 -240.97)"/></g><path class="cls-2" d="M81.12,315.43H81c-4.7-.85-9.56-1.74-14.35-3a56.65,56.65,0,0,0-5.55-1.46,58.37,58.37,0,0,1-6.37-1.72.76.76,0,0,1,.5-1.44,55.25,55.25,0,0,0,6.21,1.67c1.85.43,3.76.86,5.65,1.49,4.45,1.21,9,2.07,13.48,2.88,1.92-7.78,4.53-15.36,7-22.71,1.51-4.37,3.06-8.88,4.48-13.45,0,0,0,0,0-.05.47-1.19,1-2.35,1.47-3.47a41.82,41.82,0,0,0,3.23-9.26.44.44,0,0,0-.11-.09.75.75,0,0,1-.26,0,127,127,0,0,0-12.72-3.86,112.24,112.24,0,0,1-15.11-4.79.76.76,0,0,1-.41-1,.76.76,0,0,1,1-.41A113.19,113.19,0,0,0,84.1,259.4a131.1,131.1,0,0,1,12.77,3.86,1.7,1.7,0,0,1,1.46,1.62.66.66,0,0,1,0,.14A43.08,43.08,0,0,1,95,274.73c-.48,1.1-1,2.24-1.45,3.39-1.42,4.58-3,9.1-4.47,13.47-2.72,7.88-5.28,15.32-7.19,23.26A.77.77,0,0,1,81.12,315.43Zm16.45-50.55Z" transform="translate(-54.2 -240.97)"/><path class="cls-2" d="M71.47,313l-.18,0a.76.76,0,0,1-.56-.92,356.15,356.15,0,0,1,16.91-50.91.76.76,0,0,1,1.4.6,354.19,354.19,0,0,0-16.83,50.68A.76.76,0,0,1,71.47,313Z" transform="translate(-54.2 -240.97)"/><path class="cls-2" d="M196.35,317.65a.74.74,0,0,1-.73-.55c-3-10.4-6.23-20.8-9.62-31.81-1.75-5.71-3.57-11.61-5.38-17.58a.75.75,0,0,1,.37-.89,160.85,160.85,0,0,1,24.12-10.62.76.76,0,0,1,1,.47.78.78,0,0,1-.47,1,160.37,160.37,0,0,0-23.35,10.22c1.75,5.77,3.5,11.46,5.2,17,3.3,10.74,6.43,20.9,9.39,31.06,7.09-2.53,14.12-5.42,20.93-8.6a.76.76,0,1,1,.65,1.38C211.33,312,204,315,196.6,317.61A.73.73,0,0,1,196.35,317.65Z" transform="translate(-54.2 -240.97)"/><path class="cls-2" d="M205.51,313.67a.77.77,0,0,1-.73-.57c-4.45-16.72-9.52-33.51-15.07-49.91a.76.76,0,0,1,1.44-.49c5.57,16.43,10.65,33.26,15.1,50a.76.76,0,0,1-.54.93A.69.69,0,0,1,205.51,313.67Z" transform="translate(-54.2 -240.97)"/><path class="cls-2" d="M121.2,291a5.25,5.25,0,0,1-4.72-2.54c-1.64-3.18,1.44-6.75,2.46-7.93,4.17-4.84,8.5-9.85,13.88-13.63,6.06-4.26,12.69-6.19,18.65-5.44a40.65,40.65,0,0,1,8.77,2.5c.9.34,1.84.69,2.76,1a58.5,58.5,0,0,0,18.16,3.16.77.77,0,0,1,0,1.53h0a60.3,60.3,0,0,1-18.63-3.25c-.94-.32-1.89-.67-2.8-1a38.59,38.59,0,0,0-8.43-2.41c-5.59-.72-11.84,1.12-17.59,5.17-5.22,3.67-9.48,8.61-13.6,13.38-2.3,2.67-3,4.71-2.25,6.23a3.78,3.78,0,0,0,3.62,1.71,11.71,11.71,0,0,0,4.52-1.55l3.15-1.56c6.4-3.19,12.45-6.2,18.2-10.25a.76.76,0,1,1,.87,1.25c-5.83,4.11-11.94,7.15-18.39,10.36l-3.14,1.57a13.48,13.48,0,0,1-5.11,1.7Z" transform="translate(-54.2 -240.97)"/><path class="cls-2" d="M177.53,318.75a.76.76,0,0,1-.7-.47.77.77,0,0,1,.41-1c5.48-2.25,11-4.6,16.44-7a.76.76,0,0,1,.61,1.39c-5.44,2.38-11,4.73-16.47,7A.72.72,0,0,1,177.53,318.75Z" transform="translate(-54.2 -240.97)"/><path class="cls-2" d="M175.41,321.81a2.94,2.94,0,0,1-.44,0,9.92,9.92,0,0,1-6.83-4.6,30.34,30.34,0,0,1-2.73-5.43c-.25-.58-.49-1.16-.75-1.73a46.15,46.15,0,0,0-8.31-12.58.76.76,0,1,1,1.12-1,47.76,47.76,0,0,1,8.58,13c.26.58.51,1.17.76,1.75a29,29,0,0,0,2.59,5.17,8.43,8.43,0,0,0,5.73,3.95,1.25,1.25,0,0,0,.65-.06c.19-.12.28-.52.26-1.19a46.77,46.77,0,0,0-28.57-41.6.76.76,0,0,1-.41-1,.77.77,0,0,1,1-.41,48.23,48.23,0,0,1,29.5,43,2.74,2.74,0,0,1-1,2.52A2.11,2.11,0,0,1,175.41,321.81Z" transform="translate(-54.2 -240.97)"/><path class="cls-2" d="M137.37,330.16a6.26,6.26,0,0,1-3.91-1.26.76.76,0,1,1,.9-1.23,5.11,5.11,0,0,0,3.66.95h.11a6.13,6.13,0,0,0,4.23-2,2.92,2.92,0,0,0,.75-2.23s0-.06,0-.1a28.45,28.45,0,0,0-.42-4.54.75.75,0,0,1,.43-.8.76.76,0,0,1,.89.17,17.34,17.34,0,0,0,3.8,3.47,5.43,5.43,0,0,0,4.51.68c1.79-.65,3.63-3.77,3.22-5.46a.76.76,0,0,1,1.48-.36c.64,2.66-1.85,6.4-4.18,7.25a6.8,6.8,0,0,1-5.81-.81,13.33,13.33,0,0,1-2.52-2,22.7,22.7,0,0,1,.13,2.36,4.34,4.34,0,0,1-1.1,3.35,7.64,7.64,0,0,1-5.34,2.55h-.11Z" transform="translate(-54.2 -240.97)"/><path class="cls-2" d="M162.43,323.92a5.06,5.06,0,0,1-1.81-.39c-2.88-1.12-4.41-4.26-5.88-7.29-1-2.1-2.09-4.28-3.53-5.56a.76.76,0,0,1,1-1.14c1.67,1.49,2.8,3.8,3.89,6,1.41,2.9,2.74,5.64,5.06,6.54,1,.38,2.24.86,3.89-1.92a6.13,6.13,0,0,0,.64-2.65,23.21,23.21,0,0,0-1.09-7.19c-.1-.37-.19-.73-.28-1.09a.76.76,0,0,1,1.48-.37l.27,1.07a24.08,24.08,0,0,1,1.14,7.68,7.41,7.41,0,0,1-.85,3.32C165,323.25,163.67,323.92,162.43,323.92Z" transform="translate(-54.2 -240.97)"/><path class="cls-2" d="M112.9,323.46h-.2a6.25,6.25,0,0,1-6-4.13,6.37,6.37,0,0,1-.14-2.67,7.63,7.63,0,0,1-5.33,1,7.07,7.07,0,0,1-5.66-5.52,2.24,2.24,0,0,1,.49-2.06.77.77,0,0,1,1.08,0,.76.76,0,0,1,0,1.08c-.07.07-.12.3,0,.72a5.49,5.49,0,0,0,4.42,4.27,6,6,0,0,0,5.74-2.16.78.78,0,0,1,.89-.25,5.88,5.88,0,0,1,.69-.31,33,33,0,0,1,9.5-2.17c2.62-.21,4.37.43,5.18,1.88a4,4,0,0,1,.41,2.53,6.51,6.51,0,0,1-1.54,3.44,10.56,10.56,0,0,1-2.83,2.15A13.72,13.72,0,0,1,112.9,323.46Zm-4.53-8a6.44,6.44,0,0,0-.21,3.44c.56,1.93,2.73,3,4.58,3a12.22,12.22,0,0,0,6-1.95,9,9,0,0,0,2.44-1.83,5,5,0,0,0,1.18-2.63,2.74,2.74,0,0,0-.22-1.59c-.63-1.11-2.38-1.22-3.74-1.11a31.47,31.47,0,0,0-9.07,2.07A3,3,0,0,0,108.37,315.47Z" transform="translate(-54.2 -240.97)"/><path class="cls-2" d="M120.37,328.61a6.37,6.37,0,0,1-3.25-.84,5.76,5.76,0,0,1-2.77-5.39.76.76,0,1,1,1.52.14,4.25,4.25,0,0,0,2,3.94,5.72,5.72,0,0,0,4.81.21,17.08,17.08,0,0,0,4.58-2.82c2.08-1.63,4-3.45,4.21-5.75a1.11,1.11,0,0,0,0-.45,1.06,1.06,0,0,0-.42-.38,5.72,5.72,0,0,0-4.19-.46,16.23,16.23,0,0,0-3.91,1.61l-.22.11a.76.76,0,0,1-1-.32.77.77,0,0,1,.33-1l.22-.12a18.31,18.31,0,0,1,4.27-1.74,7.22,7.22,0,0,1,5.31.65,2.39,2.39,0,0,1,1,1.07,2.42,2.42,0,0,1,.15,1.18c-.22,2.88-2.44,5-4.79,6.83a18.38,18.38,0,0,1-5,3.05A8.54,8.54,0,0,1,120.37,328.61Z" transform="translate(-54.2 -240.97)"/><path class="cls-2" d="M129.26,330.78a7,7,0,0,1-3.15-.74,3.55,3.55,0,0,1-2.22-3.16.77.77,0,0,1,.81-.71.76.76,0,0,1,.71.81c0,.73.72,1.37,1.38,1.7a5.64,5.64,0,0,0,3.38.5,10.11,10.11,0,0,0,4.68-2.62c1.46-1.27,2.09-2.31,2-3.3a2.59,2.59,0,0,0-2.47-2,5.26,5.26,0,0,0-3.5,1.41.76.76,0,1,1-.94-1.2,6.8,6.8,0,0,1,4.52-1.73,4.11,4.11,0,0,1,3.9,3.32c.25,2-1.3,3.61-2.48,4.63a11.63,11.63,0,0,1-5.42,3A7.7,7.7,0,0,1,129.26,330.78Z" transform="translate(-54.2 -240.97)"/><path class="cls-2" d="M107.93,314.77a.77.77,0,0,1-.75-.64c-.27-1.55-2-2.49-3-2.91-2.91-1.23-5.44-1.19-7.52.12a.76.76,0,0,1-1-.2,26.07,26.07,0,0,0-10.79-8.88.76.76,0,0,1,.6-1.4,27.44,27.44,0,0,1,11,8.84c2.39-1.24,5.18-1.2,8.3.12,2.22.93,3.6,2.37,3.89,4.05a.76.76,0,0,1-.62.88Z" transform="translate(-54.2 -240.97)"/><path class="cls-2" d="M96.92,268.38a.77.77,0,0,1-.74-.59.76.76,0,0,1,.57-.91,192.53,192.53,0,0,0,22.64-7l.58-.21a33.36,33.36,0,0,1,7.68-2.13c6.17-.68,11.86,2,16.88,4.32a.76.76,0,0,1,.37,1,.77.77,0,0,1-1,.37c-4.84-2.26-10.33-4.82-16.08-4.18a31.8,31.8,0,0,0-7.32,2l-.58.21a191.81,191.81,0,0,1-22.81,7A.55.55,0,0,1,96.92,268.38Z" transform="translate(-54.2 -240.97)"/><path class="cls-2" d="M112,255.18a.77.77,0,0,1-.41-1.41A39.92,39.92,0,0,1,135,247.7a.75.75,0,0,1,.71.8.75.75,0,0,1-.8.72,38.31,38.31,0,0,0-22.5,5.84A.78.78,0,0,1,112,255.18Z" transform="translate(-54.2 -240.97)"/><path class="cls-2" d="M107.25,247.73a.76.76,0,0,1-.42-1.4A36.76,36.76,0,0,1,120.42,241a.76.76,0,1,1,.27,1.5,35.34,35.34,0,0,0-13,5.13A.78.78,0,0,1,107.25,247.73Z" transform="translate(-54.2 -240.97)"/><path class="cls-2" d="M156,331.31a.75.75,0,0,1-.76-.73.77.77,0,0,1,.74-.79,20.3,20.3,0,0,0,12.19-4.58.75.75,0,0,1,1.07.11.76.76,0,0,1-.1,1.07A21.76,21.76,0,0,1,156,331.31Z" transform="translate(-54.2 -240.97)"/><path class="cls-2" d="M213.63,307.34l-.09,0-8.26-3.11a.26.26,0,1,1,.18-.48l8.26,3.11a.26.26,0,0,1,.15.33A.27.27,0,0,1,213.63,307.34Z" transform="translate(-54.2 -240.97)"/><path class="cls-2" d="M216.42,304.24l-.08,0A125,125,0,0,1,203,298.79a.25.25,0,1,1,.22-.46,126,126,0,0,0,13.33,5.41.25.25,0,0,1,.16.33A.25.25,0,0,1,216.42,304.24Z" transform="translate(-54.2 -240.97)"/><path class="cls-2" d="M217.13,299.37l-.08,0c-5.06-1.65-10.1-3.53-15-5.6a.26.26,0,0,1-.14-.33.27.27,0,0,1,.34-.14c4.88,2.06,9.91,3.94,14.95,5.59a.26.26,0,0,1,.17.32A.26.26,0,0,1,217.13,299.37Z" transform="translate(-54.2 -240.97)"/><path class="cls-2" d="M217.13,294.69l-.09,0c-5.89-2.21-10.45-4.11-16.73-6.76a.24.24,0,0,1-.13-.33.25.25,0,0,1,.33-.14c6.27,2.65,10.82,4.55,16.7,6.76a.25.25,0,0,1-.08.49Z" transform="translate(-54.2 -240.97)"/><path class="cls-2" d="M215.66,289.41l-.09,0-16.87-6.88a.26.26,0,0,1-.14-.33.25.25,0,0,1,.33-.14l16.87,6.88a.25.25,0,0,1,.14.33A.26.26,0,0,1,215.66,289.41Z" transform="translate(-54.2 -240.97)"/><path class="cls-2" d="M215.12,284.36a.23.23,0,0,1-.11,0l-18.32-8.11a.26.26,0,0,1,.21-.47l18.32,8.12a.25.25,0,0,1,.13.33A.26.26,0,0,1,215.12,284.36Z" transform="translate(-54.2 -240.97)"/><path class="cls-2" d="M213.33,278a.19.19,0,0,1-.1,0l-18.49-8.31a.25.25,0,0,1-.13-.33.26.26,0,0,1,.34-.13l18.49,8.31a.26.26,0,0,1,.12.34A.25.25,0,0,1,213.33,278Z" transform="translate(-54.2 -240.97)"/><path class="cls-2" d="M209.18,269.7l-.09,0c-4.6-1.77-9.28-3.47-13.93-5.06a.26.26,0,0,1-.16-.32.27.27,0,0,1,.33-.16c4.65,1.59,9.34,3.29,13.94,5.06a.26.26,0,0,1-.09.5Z" transform="translate(-54.2 -240.97)"/><path class="cls-2" d="M208.81,263.85a.18.18,0,0,1-.1,0l-6.6-2.75a.25.25,0,0,1-.13-.33.25.25,0,0,1,.33-.14l6.6,2.75a.26.26,0,0,1,.13.34A.25.25,0,0,1,208.81,263.85Z" transform="translate(-54.2 -240.97)"/><path class="cls-3" d="M68.93,255.55c6.52,2.19,13.11,4.17,19.4,6.06-1,4.34-3.68,8.11-5.46,12.21a62.58,62.58,0,0,0-2.33,6.71q-4.86,15.95-9.31,32a100.76,100.76,0,0,0-16.56-4.12C60.41,290.55,65.59,273.39,68.93,255.55Z" transform="translate(-54.2 -240.97)"/><g class="cls-4"><path class="cls-2" d="M192.09,308.39a28,28,0,0,0-3,1.08,2.89,2.89,0,0,0-.66,0A8,8,0,0,0,187,310c-.51.18-1,.35-1.5.56-.2.07-.8.3-1,.36l-.18.06a3.19,3.19,0,0,1-.44.13h-.27l-.3-.07h0a5.86,5.86,0,0,1-.59-.63c-.25-.32,0,0,.12.16a7.91,7.91,0,0,0-.52-.63l-.14-.17c-.17-.23-.32-.48-.48-.72a32,32,0,0,1-1.77-3.06c-1.14-2.21-2.19-4.47-3.41-6.65a42.06,42.06,0,0,0-2.19-4.41,48.44,48.44,0,0,0-8.81-10.3,37.07,37.07,0,0,0-8.12-6.19,16,16,0,0,0-6.44-2.38,1.1,1.1,0,1,0-.34,2.16,11.57,11.57,0,0,1,4.92,1.79,1.15,1.15,0,0,0,.27,1.28c1.63,1.42,3.5,2.5,5.19,3.83-.08-.06.86.74,1.05.94s.39.39.58.59a.73.73,0,0,0-.24.57,9,9,0,0,0,1.25,2.19c1.86,2.83,4,5.46,5.63,8.47a39.89,39.89,0,0,1,4.31,13.76c.37,1.73.57,4.9,0,5.81l-.15.16-.12.07-.21.07-.11,0h0a3.18,3.18,0,0,1-.45,0l-.17,0c-.63-.16-.29,0-1.24-.53a1.28,1.28,0,0,0-1.29,2.21c3.61,2.59,6.13,1.67,6.85-1.84a18.62,18.62,0,0,0-.26-6.4c.11.32.22.64.32,1,.21,1.25.38,2.43.55,3.49l-.08.09a1.35,1.35,0,0,0,.47,1.83,1.16,1.16,0,0,0,1.27.47,1.07,1.07,0,0,0,.74-.67,74.52,74.52,0,0,0,11.46-5.42,8.3,8.3,0,0,1,1.57-.87,2.23,2.23,0,0,0,1-.7,1.9,1.9,0,0,0,.48-.46C194.84,308.5,193.18,307.79,192.09,308.39Z" transform="translate(-54.2 -240.97)"/></g><g class="cls-4"><path class="cls-2" d="M217.27,304.32a1.46,1.46,0,0,0-.59.14c-.92.27-1.74.85-2.64,1.18-1.59.78-2.21.92-4.35,1.94-3.68,2-9.79,3.88-13.07,5.25a1.72,1.72,0,0,0,.91,3.31c3.45-1.11,6.7-2.72,10-4.14,1.75-.81,5.09-2,7.85-3.37,1.29-.68,2.9-1.47,3.06-1.87A1.52,1.52,0,0,0,217.27,304.32Z" transform="translate(-54.2 -240.97)"/></g><g class="cls-4"><polygon class="cls-2" points="31.64 60.79 31.64 60.79 31.64 60.79 31.64 60.79"/></g><g class="cls-4"><path class="cls-2" d="M95.46,268.89c-1.4,5.06-3.86,8.79-5.67,14.36a72.49,72.49,0,0,0-2.56,9.94c-.4,1.49-.7,3-1,4.51a11.62,11.62,0,0,0-.38,4.06,2.3,2.3,0,0,0,3,1.53c.75.79,1.55,1.54,2.35,2.28v-.1a44.44,44.44,0,0,1,0-4.47,11,11,0,0,1-.5-2.58c.31-1.65.7-3.27.9-4.94a88.61,88.61,0,0,1,4-15.69c.52-1.53.92-3.1,1.59-4.58.47-1.33,1.25-2.68,1.25-4.11A1.57,1.57,0,0,0,95.46,268.89Z" transform="translate(-54.2 -240.97)"/></g><g class="cls-4"><path class="cls-2" d="M97,309.87a.75.75,0,0,1-.74.56,1.16,1.16,0,0,0,.88.12,1.08,1.08,0,0,0,.79-1.11Z" transform="translate(-54.2 -240.97)"/></g><g class="cls-4"><path class="cls-2" d="M85.84,301.76c0-.2-.06-.4-.08-.6A2.35,2.35,0,0,0,85.84,301.76Z" transform="translate(-54.2 -240.97)"/></g><g class="cls-4"><path class="cls-2" d="M106.3,314c-.59.4-1.39.28-2.93.26a16.06,16.06,0,0,1-3.48-.39c-.75-.17-1.45-.75-2.24-.65a1.38,1.38,0,0,0-.18,2.7,21.46,21.46,0,0,0,3.16,1,6,6,0,0,0,2.78.19,12.18,12.18,0,0,0,3.28-1.29c.42-.27,1-.49,1.14-1A.9.9,0,0,0,106.3,314Z" transform="translate(-54.2 -240.97)"/></g><g class="cls-4"><path class="cls-2" d="M121.91,316c-.51.17-.62.45-1.42.87a12.23,12.23,0,0,1-4.43,1.46,14.6,14.6,0,0,1-4.12.56,13.42,13.42,0,0,1-2.1-.09,3.85,3.85,0,0,0-1.38-.17,1.73,1.73,0,0,0-.23,3.38c4.55,1.33,8.29,0,11.52-1.95a15.88,15.88,0,0,0,2.77-2c.45-.51.57-.42.67-1.11A1,1,0,0,0,121.91,316Z" transform="translate(-54.2 -240.97)"/></g><g class="cls-4"><path class="cls-2" d="M141,325.35c-1,.14-.71.26-1.22.41a10.08,10.08,0,0,1-1.89.63c-1,.18-.95.17-1.21.2a1.08,1.08,0,0,0,.21-.88,1.26,1.26,0,0,0-1.24-1.1c-.75.05-1.32.67-2,.94a23,23,0,0,1-3,1.19,12.45,12.45,0,0,1-3.4.49c-.65,0-1.29-.44-1.89-.51a21.86,21.86,0,0,0,3.43-1.78,17.74,17.74,0,0,0,3.38-2.73,1.08,1.08,0,0,0,.36-.79,1.05,1.05,0,0,0-.51-.9,1.07,1.07,0,0,0-1.26.16l.14-.11c-.51.31-1,.63-1.54.93a26.59,26.59,0,0,1-9.45,3.43,8.51,8.51,0,0,1-1.82.07h-.16a6,6,0,0,0-1.38-.22,1,1,0,0,0-.13,2,12.55,12.55,0,0,0,3,.76,14.47,14.47,0,0,0,3.22-.16,9.61,9.61,0,0,0,1.7-.31,1.32,1.32,0,0,0,.27,2,9.63,9.63,0,0,0,8.52-.14,9.89,9.89,0,0,0,1.46-.72,1.62,1.62,0,0,0,1.6,1.64c1.73-.22,3.59-.32,5-1.36.44-.33,1-.62,1.2-1.16A1.46,1.46,0,0,0,141,325.35Z" transform="translate(-54.2 -240.97)"/></g><g class="cls-4"><path class="cls-2" d="M155,318.92c-1.06.54-.8.64-1.49,1.07a4.63,4.63,0,0,1-2.36,1,4.71,4.71,0,0,1-1.53.18l-.37,0-.42-.09c-.89-.14-1.82-.8-2.68-.28a1.54,1.54,0,0,0,.36,2.78,10.38,10.38,0,0,0,3.57.6,8.65,8.65,0,0,0,4.1-1.44,17.92,17.92,0,0,0,1.67-1.35,1.59,1.59,0,0,0,.76-1.24A1.28,1.28,0,0,0,155,318.92Z" transform="translate(-54.2 -240.97)"/></g><g class="cls-4"><path class="cls-2" d="M167,314.71a1.46,1.46,0,0,0-1.06-1.42h-.1a14.31,14.31,0,0,0-.27-3.58,26,26,0,0,0-2.26-5.09,18.6,18.6,0,0,0-3-4.89.89.89,0,0,0-1.43.7c.05.6.6,1,.88,1.55a19.29,19.29,0,0,1,2.83,6.68,15.14,15.14,0,0,1,.8,7.2v.08c0,.14,0,.27-.08.41a2.22,2.22,0,0,1-.08.28c-.15.25-.31.48-.47.72s-.63.74-.87,1l-.16.1a4.58,4.58,0,0,1-2.07-.39c-.36-.13-.43-.17,0,0a12,12,0,0,0-1.86-.77,1.4,1.4,0,0,0-.9,2.59c.46.24,1,.47,1.42.67a1.69,1.69,0,0,0,.83,1.19,2.07,2.07,0,0,0,.34.15,1.51,1.51,0,0,0,1.15,1.39,4.14,4.14,0,0,0,1.94.2,4.64,4.64,0,0,0,.75-.27,3,3,0,0,0,1.62-1.34,1.32,1.32,0,0,0,.07-1,1.48,1.48,0,0,0,.42-.94,7.81,7.81,0,0,0,1.37-2.88,13.46,13.46,0,0,0,.24-2.19v-.11Z" transform="translate(-54.2 -240.97)"/></g><path class="cls-2" d="M81.12,315.43H81c-4.7-.85-9.56-1.74-14.35-3a56.65,56.65,0,0,0-5.55-1.46,58.37,58.37,0,0,1-6.37-1.72.76.76,0,0,1,.5-1.44,55.25,55.25,0,0,0,6.21,1.67c1.85.43,3.76.86,5.65,1.49,4.45,1.21,9,2.07,13.48,2.88,1.92-7.78,4.53-15.36,7-22.71,1.51-4.37,3.06-8.88,4.48-13.45,0,0,0,0,0-.05.47-1.19,1-2.35,1.47-3.47a41.82,41.82,0,0,0,3.23-9.26.44.44,0,0,0-.11-.09.75.75,0,0,1-.26,0,127,127,0,0,0-12.72-3.86,112.24,112.24,0,0,1-15.11-4.79.76.76,0,0,1-.41-1,.76.76,0,0,1,1-.41A113.19,113.19,0,0,0,84.1,259.4a131.1,131.1,0,0,1,12.77,3.86,1.7,1.7,0,0,1,1.46,1.62.66.66,0,0,1,0,.14A43.08,43.08,0,0,1,95,274.73c-.48,1.1-1,2.24-1.45,3.39-1.42,4.58-3,9.1-4.47,13.47-2.72,7.88-5.28,15.32-7.19,23.26A.77.77,0,0,1,81.12,315.43Zm16.45-50.55Z" transform="translate(-54.2 -240.97)"/><path class="cls-2" d="M71.47,313l-.18,0a.76.76,0,0,1-.56-.92,356.15,356.15,0,0,1,16.91-50.91.76.76,0,0,1,1.4.6,354.19,354.19,0,0,0-16.83,50.68A.76.76,0,0,1,71.47,313Z" transform="translate(-54.2 -240.97)"/><path class="cls-2" d="M196.35,317.65a.74.74,0,0,1-.73-.55c-3-10.4-6.23-20.8-9.62-31.81-1.75-5.71-3.57-11.61-5.38-17.58a.75.75,0,0,1,.37-.89,160.85,160.85,0,0,1,24.12-10.62.76.76,0,0,1,1,.47.78.78,0,0,1-.47,1,160.37,160.37,0,0,0-23.35,10.22c1.75,5.77,3.5,11.46,5.2,17,3.3,10.74,6.43,20.9,9.39,31.06,7.09-2.53,14.12-5.42,20.93-8.6a.76.76,0,1,1,.65,1.38C211.33,312,204,315,196.6,317.61A.73.73,0,0,1,196.35,317.65Z" transform="translate(-54.2 -240.97)"/><path class="cls-2" d="M205.51,313.67a.77.77,0,0,1-.73-.57c-4.45-16.72-9.52-33.51-15.07-49.91a.76.76,0,0,1,1.44-.49c5.57,16.43,10.65,33.26,15.1,50a.76.76,0,0,1-.54.93A.69.69,0,0,1,205.51,313.67Z" transform="translate(-54.2 -240.97)"/><path class="cls-2" d="M121.2,291a5.25,5.25,0,0,1-4.72-2.54c-1.64-3.18,1.44-6.75,2.46-7.93,4.17-4.84,8.5-9.85,13.88-13.63,6.06-4.26,12.69-6.19,18.65-5.44a40.65,40.65,0,0,1,8.77,2.5c.9.34,1.84.69,2.76,1a58.5,58.5,0,0,0,18.16,3.16.77.77,0,0,1,0,1.53h0a60.3,60.3,0,0,1-18.63-3.25c-.94-.32-1.89-.67-2.8-1a38.59,38.59,0,0,0-8.43-2.41c-5.59-.72-11.84,1.12-17.59,5.17-5.22,3.67-9.48,8.61-13.6,13.38-2.3,2.67-3,4.71-2.25,6.23a3.78,3.78,0,0,0,3.62,1.71,11.71,11.71,0,0,0,4.52-1.55l3.15-1.56c6.4-3.19,12.45-6.2,18.2-10.25a.76.76,0,1,1,.87,1.25c-5.83,4.11-11.94,7.15-18.39,10.36l-3.14,1.57a13.48,13.48,0,0,1-5.11,1.7Z" transform="translate(-54.2 -240.97)"/><path class="cls-2" d="M177.53,318.75a.76.76,0,0,1-.7-.47.77.77,0,0,1,.41-1c5.48-2.25,11-4.6,16.44-7a.76.76,0,0,1,.61,1.39c-5.44,2.38-11,4.73-16.47,7A.72.72,0,0,1,177.53,318.75Z" transform="translate(-54.2 -240.97)"/><path class="cls-2" d="M175.41,321.81a2.94,2.94,0,0,1-.44,0,9.92,9.92,0,0,1-6.83-4.6,30.34,30.34,0,0,1-2.73-5.43c-.25-.58-.49-1.16-.75-1.73a46.15,46.15,0,0,0-8.31-12.58.76.76,0,1,1,1.12-1,47.76,47.76,0,0,1,8.58,13c.26.58.51,1.17.76,1.75a29,29,0,0,0,2.59,5.17,8.43,8.43,0,0,0,5.73,3.95,1.25,1.25,0,0,0,.65-.06c.19-.12.28-.52.26-1.19a46.77,46.77,0,0,0-28.57-41.6.76.76,0,0,1-.41-1,.77.77,0,0,1,1-.41,48.23,48.23,0,0,1,29.5,43,2.74,2.74,0,0,1-1,2.52A2.11,2.11,0,0,1,175.41,321.81Z" transform="translate(-54.2 -240.97)"/><path class="cls-2" d="M137.37,330.16a6.26,6.26,0,0,1-3.91-1.26.76.76,0,1,1,.9-1.23,5.11,5.11,0,0,0,3.66.95h.11a6.13,6.13,0,0,0,4.23-2,2.92,2.92,0,0,0,.75-2.23s0-.06,0-.1a28.45,28.45,0,0,0-.42-4.54.75.75,0,0,1,.43-.8.76.76,0,0,1,.89.17,17.34,17.34,0,0,0,3.8,3.47,5.43,5.43,0,0,0,4.51.68c1.79-.65,3.63-3.77,3.22-5.46a.76.76,0,0,1,1.48-.36c.64,2.66-1.85,6.4-4.18,7.25a6.8,6.8,0,0,1-5.81-.81,13.33,13.33,0,0,1-2.52-2,22.7,22.7,0,0,1,.13,2.36,4.34,4.34,0,0,1-1.1,3.35,7.64,7.64,0,0,1-5.34,2.55h-.11Z" transform="translate(-54.2 -240.97)"/><path class="cls-2" d="M162.43,323.92a5.06,5.06,0,0,1-1.81-.39c-2.88-1.12-4.41-4.26-5.88-7.29-1-2.1-2.09-4.28-3.53-5.56a.76.76,0,0,1,1-1.14c1.67,1.49,2.8,3.8,3.89,6,1.41,2.9,2.74,5.64,5.06,6.54,1,.38,2.24.86,3.89-1.92a6.13,6.13,0,0,0,.64-2.65,23.21,23.21,0,0,0-1.09-7.19c-.1-.37-.19-.73-.28-1.09a.76.76,0,0,1,1.48-.37l.27,1.07a24.08,24.08,0,0,1,1.14,7.68,7.41,7.41,0,0,1-.85,3.32C165,323.25,163.67,323.92,162.43,323.92Z" transform="translate(-54.2 -240.97)"/><path class="cls-2" d="M112.9,323.46h-.2a6.25,6.25,0,0,1-6-4.13,6.37,6.37,0,0,1-.14-2.67,7.63,7.63,0,0,1-5.33,1,7.07,7.07,0,0,1-5.66-5.52,2.24,2.24,0,0,1,.49-2.06.77.77,0,0,1,1.08,0,.76.76,0,0,1,0,1.08c-.07.07-.12.3,0,.72a5.49,5.49,0,0,0,4.42,4.27,6,6,0,0,0,5.74-2.16.78.78,0,0,1,.89-.25,5.88,5.88,0,0,1,.69-.31,33,33,0,0,1,9.5-2.17c2.62-.21,4.37.43,5.18,1.88a4,4,0,0,1,.41,2.53,6.51,6.51,0,0,1-1.54,3.44,10.56,10.56,0,0,1-2.83,2.15A13.72,13.72,0,0,1,112.9,323.46Zm-4.53-8a6.44,6.44,0,0,0-.21,3.44c.56,1.93,2.73,3,4.58,3a12.22,12.22,0,0,0,6-1.95,9,9,0,0,0,2.44-1.83,5,5,0,0,0,1.18-2.63,2.74,2.74,0,0,0-.22-1.59c-.63-1.11-2.38-1.22-3.74-1.11a31.47,31.47,0,0,0-9.07,2.07A3,3,0,0,0,108.37,315.47Z" transform="translate(-54.2 -240.97)"/><path class="cls-2" d="M120.37,328.61a6.37,6.37,0,0,1-3.25-.84,5.76,5.76,0,0,1-2.77-5.39.76.76,0,1,1,1.52.14,4.25,4.25,0,0,0,2,3.94,5.72,5.72,0,0,0,4.81.21,17.08,17.08,0,0,0,4.58-2.82c2.08-1.63,4-3.45,4.21-5.75a1.11,1.11,0,0,0,0-.45,1.06,1.06,0,0,0-.42-.38,5.72,5.72,0,0,0-4.19-.46,16.23,16.23,0,0,0-3.91,1.61l-.22.11a.76.76,0,0,1-1-.32.77.77,0,0,1,.33-1l.22-.12a18.31,18.31,0,0,1,4.27-1.74,7.22,7.22,0,0,1,5.31.65,2.39,2.39,0,0,1,1,1.07,2.42,2.42,0,0,1,.15,1.18c-.22,2.88-2.44,5-4.79,6.83a18.38,18.38,0,0,1-5,3.05A8.54,8.54,0,0,1,120.37,328.61Z" transform="translate(-54.2 -240.97)"/><path class="cls-2" d="M129.26,330.78a7,7,0,0,1-3.15-.74,3.55,3.55,0,0,1-2.22-3.16.77.77,0,0,1,.81-.71.76.76,0,0,1,.71.81c0,.73.72,1.37,1.38,1.7a5.64,5.64,0,0,0,3.38.5,10.11,10.11,0,0,0,4.68-2.62c1.46-1.27,2.09-2.31,2-3.3a2.59,2.59,0,0,0-2.47-2,5.26,5.26,0,0,0-3.5,1.41.76.76,0,1,1-.94-1.2,6.8,6.8,0,0,1,4.52-1.73,4.11,4.11,0,0,1,3.9,3.32c.25,2-1.3,3.61-2.48,4.63a11.63,11.63,0,0,1-5.42,3A7.7,7.7,0,0,1,129.26,330.78Z" transform="translate(-54.2 -240.97)"/><path class="cls-2" d="M107.93,314.77a.77.77,0,0,1-.75-.64c-.27-1.55-2-2.49-3-2.91-2.91-1.23-5.44-1.19-7.52.12a.76.76,0,0,1-1-.2,26.07,26.07,0,0,0-10.79-8.88.76.76,0,0,1,.6-1.4,27.44,27.44,0,0,1,11,8.84c2.39-1.24,5.18-1.2,8.3.12,2.22.93,3.6,2.37,3.89,4.05a.76.76,0,0,1-.62.88Z" transform="translate(-54.2 -240.97)"/><path class="cls-2" d="M96.92,268.38a.77.77,0,0,1-.74-.59.76.76,0,0,1,.57-.91,192.53,192.53,0,0,0,22.64-7l.58-.21a33.36,33.36,0,0,1,7.68-2.13c6.17-.68,11.86,2,16.88,4.32a.76.76,0,0,1,.37,1,.77.77,0,0,1-1,.37c-4.84-2.26-10.33-4.82-16.08-4.18a31.8,31.8,0,0,0-7.32,2l-.58.21a191.81,191.81,0,0,1-22.81,7A.55.55,0,0,1,96.92,268.38Z" transform="translate(-54.2 -240.97)"/><path class="cls-2" d="M112,255.18a.77.77,0,0,1-.41-1.41A39.92,39.92,0,0,1,135,247.7a.75.75,0,0,1,.71.8.75.75,0,0,1-.8.72,38.31,38.31,0,0,0-22.5,5.84A.78.78,0,0,1,112,255.18Z" transform="translate(-54.2 -240.97)"/><path class="cls-2" d="M107.25,247.73a.76.76,0,0,1-.42-1.4A36.76,36.76,0,0,1,120.42,241a.76.76,0,1,1,.27,1.5,35.34,35.34,0,0,0-13,5.13A.78.78,0,0,1,107.25,247.73Z" transform="translate(-54.2 -240.97)"/><path class="cls-2" d="M156,331.31a.75.75,0,0,1-.76-.73.77.77,0,0,1,.74-.79,20.3,20.3,0,0,0,12.19-4.58.75.75,0,0,1,1.07.11.76.76,0,0,1-.1,1.07A21.76,21.76,0,0,1,156,331.31Z" transform="translate(-54.2 -240.97)"/></svg>