<svg id="Layer_1" data-name="Layer 1" xmlns="http://www.w3.org/2000/svg" viewBox="0 0 148.34 130.79"><defs><style>.cls-1{fill:#fbe5d6;}.cls-2{fill:#7c3c00;}.cls-3{opacity:0.13;}.cls-4{fill:#f4b183;}</style></defs><title>languages</title><path class="cls-1" d="M540.09,238.86h77.45a26.23,26.23,0,0,1,26.24,26.23v35.69A26.23,26.23,0,0,1,624.65,326l5.36,29-24.18-28H540.09a26.23,26.23,0,0,1-26.23-26.24V265.09A26.23,26.23,0,0,1,540.09,238.86Z" transform="translate(-496.31 -225.14)"/><path class="cls-2" d="M630,355.93a.85.85,0,0,1-.66-.3l-23.92-27.74H540.09A27.13,27.13,0,0,1,513,300.78V265.09a27.12,27.12,0,0,1,27.1-27.1h77.45a27.13,27.13,0,0,1,27.11,27.1v35.69a27.19,27.19,0,0,1-19,25.86l5.22,28.26a.89.89,0,0,1-.48,1A1,1,0,0,1,630,355.93Zm-89.92-116.2a25.38,25.38,0,0,0-25.36,25.36v35.69a25.39,25.39,0,0,0,25.36,25.37h65.74a.87.87,0,0,1,.66.3l22.08,25.61-4.77-25.87a.87.87,0,0,1,.62-1,25.46,25.46,0,0,0,18.49-24.42V265.09a25.39,25.39,0,0,0-25.37-25.36Z" transform="translate(-496.31 -225.14)"/><path class="cls-2" d="M534.69,323a.29.29,0,0,1-.21-.09.3.3,0,0,1,0-.41l5.74-5.74a.3.3,0,0,1,.41,0,.28.28,0,0,1,0,.41l-5.74,5.74A.28.28,0,0,1,534.69,323Z" transform="translate(-496.31 -225.14)"/><path class="cls-2" d="M541.94,323a.29.29,0,0,1-.21-.09.3.3,0,0,1,0-.41l5.74-5.74a.3.3,0,0,1,.41,0,.28.28,0,0,1,0,.41l-5.74,5.74A.28.28,0,0,1,541.94,323Z" transform="translate(-496.31 -225.14)"/><path class="cls-2" d="M548.9,323a.29.29,0,0,1-.21-.09.3.3,0,0,1,0-.41l5.74-5.74a.3.3,0,0,1,.41,0,.28.28,0,0,1,0,.41l-5.74,5.74A.28.28,0,0,1,548.9,323Z" transform="translate(-496.31 -225.14)"/><path class="cls-2" d="M555.94,323a.27.27,0,0,1-.2-.09.28.28,0,0,1,0-.41l5.74-5.74a.29.29,0,0,1,.41.41l-5.74,5.74A.29.29,0,0,1,555.94,323Z" transform="translate(-496.31 -225.14)"/><path class="cls-2" d="M562.14,323a.29.29,0,0,1-.21-.09.3.3,0,0,1,0-.41l5.74-5.74a.3.3,0,0,1,.41,0,.28.28,0,0,1,0,.41l-5.74,5.74A.27.27,0,0,1,562.14,323Z" transform="translate(-496.31 -225.14)"/><path class="cls-2" d="M569.39,323a.29.29,0,0,1-.21-.09.3.3,0,0,1,0-.41l5.74-5.74a.3.3,0,0,1,.41,0,.28.28,0,0,1,0,.41l-5.74,5.74A.27.27,0,0,1,569.39,323Z" transform="translate(-496.31 -225.14)"/><path class="cls-2" d="M576.35,323a.29.29,0,0,1-.21-.09.3.3,0,0,1,0-.41l5.74-5.74a.3.3,0,0,1,.41,0,.28.28,0,0,1,0,.41l-5.74,5.74A.27.27,0,0,1,576.35,323Z" transform="translate(-496.31 -225.14)"/><path class="cls-2" d="M583.39,323a.28.28,0,0,1-.2-.09.3.3,0,0,1,0-.41l5.74-5.74a.29.29,0,0,1,.41.41l-5.74,5.74A.29.29,0,0,1,583.39,323Z" transform="translate(-496.31 -225.14)"/><path class="cls-2" d="M591.14,323a.29.29,0,0,1-.21-.09.3.3,0,0,1,0-.41l5.74-5.74a.3.3,0,0,1,.41,0,.28.28,0,0,1,0,.41l-5.74,5.74A.27.27,0,0,1,591.14,323Z" transform="translate(-496.31 -225.14)"/><path class="cls-2" d="M598.39,323a.29.29,0,0,1-.21-.09.3.3,0,0,1,0-.41l5.74-5.74a.3.3,0,0,1,.41,0,.28.28,0,0,1,0,.41l-5.74,5.74A.27.27,0,0,1,598.39,323Z" transform="translate(-496.31 -225.14)"/><path class="cls-2" d="M605.34,323a.28.28,0,0,1-.2-.09.3.3,0,0,1,0-.41l6.77-6.76a.28.28,0,0,1,.41,0,.3.3,0,0,1,0,.41l-6.77,6.76A.29.29,0,0,1,605.34,323Z" transform="translate(-496.31 -225.14)"/><path class="cls-2" d="M627.72,300.66a.29.29,0,0,1-.21-.09.3.3,0,0,1,0-.41l13.43-13.43a.3.3,0,0,1,.41,0,.28.28,0,0,1,0,.41l-13.43,13.43A.27.27,0,0,1,627.72,300.66Z" transform="translate(-496.31 -225.14)"/><path class="cls-2" d="M630.38,290.36a.26.26,0,0,1-.2-.08.3.3,0,0,1,0-.41l10.76-10.77a.3.3,0,0,1,.41,0,.28.28,0,0,1,0,.41l-10.76,10.77A.28.28,0,0,1,630.38,290.36Z" transform="translate(-496.31 -225.14)"/><path class="cls-2" d="M630.38,282.91a.29.29,0,0,1-.2-.49l10.76-10.77a.3.3,0,0,1,.41,0,.28.28,0,0,1,0,.41l-10.76,10.77A.32.32,0,0,1,630.38,282.91Z" transform="translate(-496.31 -225.14)"/><path class="cls-2" d="M629.85,276.57a.28.28,0,0,1-.21-.08.3.3,0,0,1,0-.41l10.77-10.77a.29.29,0,1,1,.41.41l-10.77,10.77A.27.27,0,0,1,629.85,276.57Z" transform="translate(-496.31 -225.14)"/><path class="cls-2" d="M629.85,269.52a.28.28,0,0,1-.21-.08.3.3,0,0,1,0-.41l9-9a.28.28,0,0,1,.41,0,.3.3,0,0,1,0,.41l-9,9A.26.26,0,0,1,629.85,269.52Z" transform="translate(-496.31 -225.14)"/><path class="cls-2" d="M629.87,262.27a.32.32,0,0,1-.21-.08.3.3,0,0,1,0-.41l7-7a.29.29,0,1,1,.41.41l-7,7A.3.3,0,0,1,629.87,262.27Z" transform="translate(-496.31 -225.14)"/><path class="cls-2" d="M630.37,255.31a.28.28,0,0,1-.2-.09.3.3,0,0,1,0-.41l4-4a.28.28,0,0,1,.41,0,.3.3,0,0,1,0,.41l-4,4A.29.29,0,0,1,630.37,255.31Z" transform="translate(-496.31 -225.14)"/><path class="cls-2" d="M629.51,248.62a.27.27,0,0,1-.2-.09.28.28,0,0,1,0-.41l1.74-1.74a.29.29,0,1,1,.41.41l-1.74,1.74A.29.29,0,0,1,629.51,248.62Z" transform="translate(-496.31 -225.14)"/><path class="cls-2" d="M609.66,326.19a.28.28,0,0,1-.21-.08.3.3,0,0,1,0-.41l30.86-30.86a.29.29,0,1,1,.41.41l-30.86,30.86A.27.27,0,0,1,609.66,326.19Z" transform="translate(-496.31 -225.14)"/><path class="cls-2" d="M613.13,329.92a.28.28,0,0,1-.21-.08.3.3,0,0,1,0-.41L639.37,303a.29.29,0,1,1,.41.41l-26.45,26.45A.27.27,0,0,1,613.13,329.92Z" transform="translate(-496.31 -225.14)"/><path class="cls-2" d="M629,320.62a.28.28,0,0,1-.2-.09.3.3,0,0,1,0-.41l8.72-8.71a.29.29,0,0,1,.41.41l-8.72,8.71A.29.29,0,0,1,629,320.62Z" transform="translate(-496.31 -225.14)"/><path class="cls-2" d="M616.31,334.5a.29.29,0,0,1-.21-.09.3.3,0,0,1,0-.41l5.44-5.43a.28.28,0,0,1,.41,0,.3.3,0,0,1,0,.41l-5.44,5.43A.28.28,0,0,1,616.31,334.5Z" transform="translate(-496.31 -225.14)"/><path class="cls-2" d="M619.51,338.52a.27.27,0,0,1-.2-.09.28.28,0,0,1,0-.41l3.58-3.58a.29.29,0,1,1,.41.41l-3.58,3.58A.29.29,0,0,1,619.51,338.52Z" transform="translate(-496.31 -225.14)"/><path class="cls-2" d="M622.55,342.89a.29.29,0,0,1-.21-.09.3.3,0,0,1,0-.41l2-2.05a.3.3,0,0,1,.41,0,.28.28,0,0,1,0,.41l-2,2.05A.27.27,0,0,1,622.55,342.89Z" transform="translate(-496.31 -225.14)"/><g class="cls-3"><path class="cls-2" d="M632,267.81c-.19-4.82-.85-9.62-.77-14.45.06-3.5-.15-7.11-1.62-10.34-.73-1.43-1.21-2.69-2.88-2.51a2,2,0,0,0-1.66,1.43,2.5,2.5,0,0,0,0,1.09h0a1.79,1.79,0,0,0,.19.45,10.74,10.74,0,0,0,.58,1.22h0a15,15,0,0,1,.9,3.42c.33,2.59.14,5.22.21,7.83.13,3.41.39,6.81.55,10.22.2,5.95-.17,11.89-.16,17.84.05,3.43,0,8.12-.48,9.79,0,.16-.07.33-.11.49l-.09.26c-.5,1.79-1,2.92-1.2,3.41-1.8,4.69-8.28,12.92-12.57,14.25s-6.34,1.47-11,1.27c-4,0-8-.1-12.07-.1s-8.27.14-12.4,0c-4.82-.24-9.65.11-14.48,0-7.58-.1-15.4-.49-21,.16-2.86.23-3.3-.37-5.18.42-3,2.24-5.21,5.41-8.18,7.7a2.47,2.47,0,0,0,3.5,3.5c2.15-1.72,5.18-5.23,6.65-6.64.67.07,1.34.1,2,.15,7.26-.06,14.53-.44,21.8-.49,7.68-.05,15.35-.09,23-.31,5.59,0,11.18,0,16.77-.27a38.61,38.61,0,0,0,7-.43,22.54,22.54,0,0,0,6.44-1.85,18.56,18.56,0,0,0,4.24-3,38.35,38.35,0,0,0,6.26-7.25,28.84,28.84,0,0,0,3.19-6,19.75,19.75,0,0,0,1.68-5.51,50.28,50.28,0,0,0,.67-5.2c-.06-2.71,0-5.41,0-8.12C631.73,276.1,632.17,272,632,267.81Z" transform="translate(-496.31 -225.14)"/></g><path class="cls-1" d="M600.87,226H523.41a26.23,26.23,0,0,0-26.23,26.24v35.69a26.23,26.23,0,0,0,19.12,25.25l-5.36,29,24.18-28.05h65.75a26.23,26.23,0,0,0,26.23-26.23V252.25A26.24,26.24,0,0,0,600.87,226Z" transform="translate(-496.31 -225.14)"/><path class="cls-2" d="M510.94,343.09a.81.81,0,0,1-.37-.09.86.86,0,0,1-.48-.94l5.21-28.26a27.18,27.18,0,0,1-19-25.86V252.25a27.14,27.14,0,0,1,27.1-27.11h77.46A27.14,27.14,0,0,1,628,252.25v35.69a27.13,27.13,0,0,1-27.1,27.1H535.52L511.6,342.79A.89.89,0,0,1,510.94,343.09Zm12.47-116.21a25.4,25.4,0,0,0-25.36,25.37v35.69a25.43,25.43,0,0,0,18.49,24.41.89.89,0,0,1,.62,1l-4.78,25.87,22.08-25.61a.9.9,0,0,1,.66-.31h65.75a25.39,25.39,0,0,0,25.36-25.36V252.25a25.4,25.4,0,0,0-25.36-25.37Z" transform="translate(-496.31 -225.14)"/><path class="cls-2" d="M534.69,323a.29.29,0,0,1-.21-.09.3.3,0,0,1,0-.41l5.74-5.74a.3.3,0,0,1,.41,0,.28.28,0,0,1,0,.41l-5.74,5.74A.28.28,0,0,1,534.69,323Z" transform="translate(-496.31 -225.14)"/><path class="cls-2" d="M541.94,323a.29.29,0,0,1-.21-.09.3.3,0,0,1,0-.41l5.74-5.74a.3.3,0,0,1,.41,0,.28.28,0,0,1,0,.41l-5.74,5.74A.28.28,0,0,1,541.94,323Z" transform="translate(-496.31 -225.14)"/><path class="cls-2" d="M548.9,323a.29.29,0,0,1-.21-.09.3.3,0,0,1,0-.41l5.74-5.74a.3.3,0,0,1,.41,0,.28.28,0,0,1,0,.41l-5.74,5.74A.28.28,0,0,1,548.9,323Z" transform="translate(-496.31 -225.14)"/><path class="cls-2" d="M555.94,323a.27.27,0,0,1-.2-.09.28.28,0,0,1,0-.41l5.74-5.74a.29.29,0,0,1,.41.41l-5.74,5.74A.29.29,0,0,1,555.94,323Z" transform="translate(-496.31 -225.14)"/><path class="cls-2" d="M562.14,323a.29.29,0,0,1-.21-.09.3.3,0,0,1,0-.41l5.74-5.74a.3.3,0,0,1,.41,0,.28.28,0,0,1,0,.41l-5.74,5.74A.27.27,0,0,1,562.14,323Z" transform="translate(-496.31 -225.14)"/><path class="cls-2" d="M569.39,323a.29.29,0,0,1-.21-.09.3.3,0,0,1,0-.41l5.74-5.74a.3.3,0,0,1,.41,0,.28.28,0,0,1,0,.41l-5.74,5.74A.27.27,0,0,1,569.39,323Z" transform="translate(-496.31 -225.14)"/><path class="cls-2" d="M576.35,323a.29.29,0,0,1-.21-.09.3.3,0,0,1,0-.41l5.74-5.74a.3.3,0,0,1,.41,0,.28.28,0,0,1,0,.41l-5.74,5.74A.27.27,0,0,1,576.35,323Z" transform="translate(-496.31 -225.14)"/><path class="cls-2" d="M583.39,323a.28.28,0,0,1-.2-.09.3.3,0,0,1,0-.41l5.74-5.74a.29.29,0,0,1,.41.41l-5.74,5.74A.29.29,0,0,1,583.39,323Z" transform="translate(-496.31 -225.14)"/><path class="cls-2" d="M591.14,323a.29.29,0,0,1-.21-.09.3.3,0,0,1,0-.41l5.74-5.74a.3.3,0,0,1,.41,0,.28.28,0,0,1,0,.41l-5.74,5.74A.27.27,0,0,1,591.14,323Z" transform="translate(-496.31 -225.14)"/><path class="cls-2" d="M598.39,323a.29.29,0,0,1-.21-.09.3.3,0,0,1,0-.41l5.74-5.74a.3.3,0,0,1,.41,0,.28.28,0,0,1,0,.41l-5.74,5.74A.27.27,0,0,1,598.39,323Z" transform="translate(-496.31 -225.14)"/><path class="cls-2" d="M605.34,323a.28.28,0,0,1-.2-.09.3.3,0,0,1,0-.41l6.77-6.76a.28.28,0,0,1,.41,0,.3.3,0,0,1,0,.41l-6.77,6.76A.29.29,0,0,1,605.34,323Z" transform="translate(-496.31 -225.14)"/><path class="cls-2" d="M627.72,300.66a.29.29,0,0,1-.21-.09.3.3,0,0,1,0-.41l13.43-13.43a.3.3,0,0,1,.41,0,.28.28,0,0,1,0,.41l-13.43,13.43A.27.27,0,0,1,627.72,300.66Z" transform="translate(-496.31 -225.14)"/><path class="cls-2" d="M630.38,290.36a.26.26,0,0,1-.2-.08.3.3,0,0,1,0-.41l10.76-10.77a.3.3,0,0,1,.41,0,.28.28,0,0,1,0,.41l-10.76,10.77A.28.28,0,0,1,630.38,290.36Z" transform="translate(-496.31 -225.14)"/><path class="cls-2" d="M630.38,282.91a.29.29,0,0,1-.2-.49l10.76-10.77a.3.3,0,0,1,.41,0,.28.28,0,0,1,0,.41l-10.76,10.77A.32.32,0,0,1,630.38,282.91Z" transform="translate(-496.31 -225.14)"/><path class="cls-2" d="M629.85,276.57a.28.28,0,0,1-.21-.08.3.3,0,0,1,0-.41l10.77-10.77a.29.29,0,1,1,.41.41l-10.77,10.77A.27.27,0,0,1,629.85,276.57Z" transform="translate(-496.31 -225.14)"/><path class="cls-2" d="M629.85,269.52a.28.28,0,0,1-.21-.08.3.3,0,0,1,0-.41l9-9a.28.28,0,0,1,.41,0,.3.3,0,0,1,0,.41l-9,9A.26.26,0,0,1,629.85,269.52Z" transform="translate(-496.31 -225.14)"/><path class="cls-2" d="M629.87,262.27a.32.32,0,0,1-.21-.08.3.3,0,0,1,0-.41l7-7a.29.29,0,1,1,.41.41l-7,7A.3.3,0,0,1,629.87,262.27Z" transform="translate(-496.31 -225.14)"/><path class="cls-2" d="M630.37,255.31a.28.28,0,0,1-.2-.09.3.3,0,0,1,0-.41l4-4a.28.28,0,0,1,.41,0,.3.3,0,0,1,0,.41l-4,4A.29.29,0,0,1,630.37,255.31Z" transform="translate(-496.31 -225.14)"/><path class="cls-2" d="M629.51,248.62a.27.27,0,0,1-.2-.09.28.28,0,0,1,0-.41l1.74-1.74a.29.29,0,1,1,.41.41l-1.74,1.74A.29.29,0,0,1,629.51,248.62Z" transform="translate(-496.31 -225.14)"/><path class="cls-2" d="M609.66,326.19a.28.28,0,0,1-.21-.08.3.3,0,0,1,0-.41l30.86-30.86a.29.29,0,1,1,.41.41l-30.86,30.86A.27.27,0,0,1,609.66,326.19Z" transform="translate(-496.31 -225.14)"/><path class="cls-2" d="M613.13,329.92a.28.28,0,0,1-.21-.08.3.3,0,0,1,0-.41L639.37,303a.29.29,0,1,1,.41.41l-26.45,26.45A.27.27,0,0,1,613.13,329.92Z" transform="translate(-496.31 -225.14)"/><path class="cls-2" d="M629,320.62a.28.28,0,0,1-.2-.09.3.3,0,0,1,0-.41l8.72-8.71a.29.29,0,0,1,.41.41l-8.72,8.71A.29.29,0,0,1,629,320.62Z" transform="translate(-496.31 -225.14)"/><path class="cls-2" d="M616.31,334.5a.29.29,0,0,1-.21-.09.3.3,0,0,1,0-.41l5.44-5.43a.28.28,0,0,1,.41,0,.3.3,0,0,1,0,.41l-5.44,5.43A.28.28,0,0,1,616.31,334.5Z" transform="translate(-496.31 -225.14)"/><path class="cls-2" d="M619.51,338.52a.27.27,0,0,1-.2-.09.28.28,0,0,1,0-.41l3.58-3.58a.29.29,0,1,1,.41.41l-3.58,3.58A.29.29,0,0,1,619.51,338.52Z" transform="translate(-496.31 -225.14)"/><path class="cls-2" d="M622.55,342.89a.29.29,0,0,1-.21-.09.3.3,0,0,1,0-.41l2-2.05a.3.3,0,0,1,.41,0,.28.28,0,0,1,0,.41l-2,2.05A.27.27,0,0,1,622.55,342.89Z" transform="translate(-496.31 -225.14)"/><g class="cls-3"><path class="cls-2" d="M632,267.81c-.19-4.82-.85-9.62-.77-14.45.06-3.5-.15-7.11-1.62-10.34-.73-1.43-1.21-2.69-2.88-2.51a2,2,0,0,0-1.66,1.43,2.5,2.5,0,0,0,0,1.09h0a1.79,1.79,0,0,0,.19.45,10.74,10.74,0,0,0,.58,1.22h0a15,15,0,0,1,.9,3.42c.33,2.59.14,5.22.21,7.83.13,3.41.39,6.81.55,10.22.2,5.95-.17,11.89-.16,17.84.05,3.43,0,8.12-.48,9.79,0,.16-.07.33-.11.49l-.09.26c-.5,1.79-1,2.92-1.2,3.41-1.8,4.69-8.28,12.92-12.57,14.25s-6.34,1.47-11,1.27c-4,0-8-.1-12.07-.1s-8.27.14-12.4,0c-4.82-.24-9.65.11-14.48,0-7.58-.1-15.4-.49-21,.16-2.86.23-3.3-.37-5.18.42-3,2.24-5.21,5.41-8.18,7.7a2.47,2.47,0,0,0,3.5,3.5c2.15-1.72,5.18-5.23,6.65-6.64.67.07,1.34.1,2,.15,7.26-.06,14.53-.44,21.8-.49,7.68-.05,15.35-.09,23-.31,5.59,0,11.18,0,16.77-.27a38.61,38.61,0,0,0,7-.43,22.54,22.54,0,0,0,6.44-1.85,18.56,18.56,0,0,0,4.24-3,38.35,38.35,0,0,0,6.26-7.25,28.84,28.84,0,0,0,3.19-6,19.75,19.75,0,0,0,1.68-5.51,50.28,50.28,0,0,0,.67-5.2c-.06-2.71,0-5.41,0-8.12C631.73,276.1,632.17,272,632,267.81Z" transform="translate(-496.31 -225.14)"/></g><rect class="cls-4" x="24.14" y="24.39" width="72.37" height="6.84"/><path class="cls-2" d="M592.81,257.25H520.44a.87.87,0,0,1-.87-.87v-6.85a.87.87,0,0,1,.87-.87h72.37a.87.87,0,0,1,.87.87v6.85A.87.87,0,0,1,592.81,257.25Zm-71.49-1.74h70.62V250.4H521.32Z" transform="translate(-496.31 -225.14)"/><rect class="cls-1" x="24.14" y="40.71" width="44.46" height="6.84"/><path class="cls-2" d="M564.91,273.57H520.44a.87.87,0,0,1-.87-.87v-6.84a.87.87,0,0,1,.87-.87h44.47a.87.87,0,0,1,.87.87v6.84A.87.87,0,0,1,564.91,273.57Zm-43.59-1.74H564v-5.1H521.32Z" transform="translate(-496.31 -225.14)"/><rect class="cls-4" x="24.14" y="57.03" width="72.37" height="6.84"/><path class="cls-2" d="M592.81,289.89H520.44a.87.87,0,0,1-.87-.87v-6.84a.87.87,0,0,1,.87-.87h72.37a.87.87,0,0,1,.87.87V289A.87.87,0,0,1,592.81,289.89Zm-71.49-1.74h70.62v-5.1H521.32Z" transform="translate(-496.31 -225.14)"/></svg>