<svg id="Layer_1" data-name="Layer 1" xmlns="http://www.w3.org/2000/svg" viewBox="0 0 136.63 109.62"><defs><style>.cls-1{fill:#fbe5d6;}.cls-2{fill:#7c3c0c;}.cls-3{fill:#f4b183;}.cls-4{opacity:0.13;}</style></defs><title>projects</title><rect class="cls-1" x="0.87" y="0.87" width="29" height="107.88"/><path class="cls-2" d="M341.55,175.11h-29a.87.87,0,0,1-.87-.87V66.36a.87.87,0,0,1,.87-.87h29a.87.87,0,0,1,.87.87V174.24A.87.87,0,0,1,341.55,175.11Zm-28.13-1.74h27.26V67.23H313.42Z" transform="translate(-311.68 -65.49)"/><rect class="cls-1" x="40.07" y="0.87" width="29" height="107.88"/><path class="cls-2" d="M380.76,175.11h-29a.87.87,0,0,1-.87-.87V66.36a.87.87,0,0,1,.87-.87h29a.87.87,0,0,1,.87.87V174.24A.87.87,0,0,1,380.76,175.11Zm-28.13-1.74h27.26V67.23H352.63Z" transform="translate(-311.68 -65.49)"/><rect class="cls-1" x="79.51" y="0.87" width="29" height="107.88"/><path class="cls-2" d="M420.2,175.11h-29a.87.87,0,0,1-.87-.87V66.36a.87.87,0,0,1,.87-.87h29a.87.87,0,0,1,.87.87V174.24A.87.87,0,0,1,420.2,175.11Zm-28.13-1.74h27.26V67.23H392.07Z" transform="translate(-311.68 -65.49)"/><rect class="cls-3" x="40.19" y="15.74" width="29" height="14.5"/><path class="cls-2" d="M380.87,96.6h-29a.87.87,0,0,1-.87-.87V81.23a.87.87,0,0,1,.87-.87h29a.87.87,0,0,1,.87.87v14.5A.87.87,0,0,1,380.87,96.6Zm-28.13-1.74H380V82.1H352.74Z" transform="translate(-311.68 -65.49)"/><rect class="cls-3" x="40.07" y="78.37" width="29" height="14.5"/><path class="cls-2" d="M380.76,159.23h-29a.87.87,0,0,1-.87-.87v-14.5a.87.87,0,0,1,.87-.87h29a.87.87,0,0,1,.87.87v14.5A.87.87,0,0,1,380.76,159.23Zm-28.13-1.74h27.26V144.73H352.63Z" transform="translate(-311.68 -65.49)"/><polygon class="cls-3" points="128.66 50.3 94.55 35.31 105.25 71 111.84 65.18 125.53 81.54 135.76 72.49 122.07 56.13 128.66 50.3"/><path class="cls-2" d="M437.21,147.9h-.06a.86.86,0,0,1-.6-.31l-13.12-15.68-5.92,5.24a.9.9,0,0,1-.82.18.85.85,0,0,1-.59-.59l-10.7-35.68a.86.86,0,0,1,1.18-1l34.11,15a.89.89,0,0,1,.51.66.9.9,0,0,1-.28.79l-6,5.26,13.15,15.72a.88.88,0,0,1-.09,1.21l-10.23,9A.89.89,0,0,1,437.21,147.9Zm-13.69-18.1h.06a.89.89,0,0,1,.61.31l13.12,15.68,8.92-7.9-13.15-15.71a.87.87,0,0,1,.09-1.21l5.57-4.93L407.6,102.36l9.77,32.58,5.57-4.92A.84.84,0,0,1,423.52,129.8Z" transform="translate(-311.68 -65.49)"/><path class="cls-2" d="M391.57,87a.87.87,0,1,1,0-1.74l27.76,0h0a.87.87,0,1,1,0,1.74l-27.75,0Z" transform="translate(-311.68 -65.49)"/><path class="cls-2" d="M391.82,154.31a.86.86,0,0,1-.87-.86.87.87,0,0,1,.87-.88l27.75,0h0a.87.87,0,0,1,0,1.74l-27.75,0Z" transform="translate(-311.68 -65.49)"/><path class="cls-2" d="M312.55,153.14a.87.87,0,0,1-.87-.84.89.89,0,0,1,.85-.9c3.71-.1,7.43-.12,11-.14,5.72,0,11.64-.06,17.56-.44a.87.87,0,1,1,.11,1.74c-6,.38-11.91.41-17.66.44-3.58,0-7.29,0-11,.14Z" transform="translate(-311.68 -65.49)"/><path class="cls-2" d="M312.55,163.1a.87.87,0,0,1-.87-.81.89.89,0,0,1,.82-.93c3.79-.24,8.36-.3,13.2-.35,5.21-.06,10.6-.12,15.41-.43a.87.87,0,1,1,.12,1.73c-4.86.32-10.28.38-15.51.44-4.82.05-9.37.11-13.11.35Z" transform="translate(-311.68 -65.49)"/><path class="cls-2" d="M312.55,82.32a.88.88,0,0,1-.87-.85.87.87,0,0,1,.85-.89c3.71-.11,7.43-.13,11-.15,5.72,0,11.64-.06,17.56-.44a.88.88,0,0,1,.93.82.87.87,0,0,1-.82.92c-6,.38-11.91.41-17.66.44-3.58,0-7.29,0-11,.14Z" transform="translate(-311.68 -65.49)"/><path class="cls-2" d="M312.55,92.27a.87.87,0,0,1-.05-1.73c3.79-.25,8.36-.3,13.2-.36,5.21-.06,10.6-.12,15.41-.43a.87.87,0,1,1,.12,1.74c-4.86.31-10.28.37-15.51.43-4.82.06-9.37.11-13.11.35Z" transform="translate(-311.68 -65.49)"/><path class="cls-2" d="M315,100.58a.27.27,0,0,1-.24-.12.3.3,0,0,1,.07-.41c3.22-2.22,6.54-4.4,9.87-6.48a.29.29,0,0,1,.4.1.28.28,0,0,1-.09.4c-3.32,2.06-6.63,4.24-9.85,6.46A.25.25,0,0,1,315,100.58Z" transform="translate(-311.68 -65.49)"/><path class="cls-2" d="M315,106.29a.3.3,0,0,1-.24-.12.29.29,0,0,1,.07-.4c5.69-4.11,11.49-8.21,17.23-12.19a.29.29,0,0,1,.41.08.29.29,0,0,1-.08.4c-5.74,4-11.54,8.07-17.22,12.18A.37.37,0,0,1,315,106.29Z" transform="translate(-311.68 -65.49)"/><path class="cls-2" d="M314.61,111.75a.28.28,0,0,1-.23-.11.29.29,0,0,1,.06-.41c7.87-5.89,16.26-11.43,24.18-16.6a.29.29,0,0,1,.4.08.28.28,0,0,1-.09.4c-7.91,5.17-16.29,10.71-24.15,16.59A.26.26,0,0,1,314.61,111.75Z" transform="translate(-311.68 -65.49)"/><path class="cls-2" d="M315,96.21a.29.29,0,0,1-.26-.16.28.28,0,0,1,.13-.39l4.2-2.1a.29.29,0,0,1,.26.52l-4.2,2.1Z" transform="translate(-311.68 -65.49)"/><path class="cls-2" d="M315,116.22a.31.31,0,0,1-.25-.13.3.3,0,0,1,.09-.4c3.9-2.49,8-5.2,11.88-7.82s8-5.33,11.9-7.82a.29.29,0,0,1,.31.49c-3.9,2.49-8,5.19-11.88,7.81s-8,5.33-11.9,7.82A.23.23,0,0,1,315,116.22Z" transform="translate(-311.68 -65.49)"/><path class="cls-2" d="M315.11,121.35a.27.27,0,0,1-.23-.12.29.29,0,0,1,.06-.41c7.77-5.57,15.81-11,23.9-16.1a.3.3,0,0,1,.4.09.3.3,0,0,1-.09.4c-8.08,5.1-16.11,10.52-23.87,16.08A.27.27,0,0,1,315.11,121.35Z" transform="translate(-311.68 -65.49)"/><path class="cls-2" d="M315.3,126.54a.28.28,0,0,1-.23-.11.29.29,0,0,1,.05-.41c5.6-4.28,11.17-7.91,17.07-11.75,2.28-1.49,4.65-3,7-4.6a.29.29,0,0,1,.4.08.28.28,0,0,1-.08.4c-2.34,1.57-4.71,3.11-7,4.6-5.89,3.84-11.46,7.46-17,11.73A.27.27,0,0,1,315.3,126.54Z" transform="translate(-311.68 -65.49)"/><path class="cls-2" d="M315.05,131.73a.3.3,0,0,1-.24-.12.3.3,0,0,1,.08-.41l24.29-16.58a.29.29,0,0,1,.4.07.29.29,0,0,1-.08.41l-24.28,16.58A.26.26,0,0,1,315.05,131.73Z" transform="translate(-311.68 -65.49)"/><path class="cls-2" d="M315.11,136.43a.3.3,0,0,1-.25-.14.29.29,0,0,1,.1-.4c6.12-3.75,12.24-8,18.16-12.11,2-1.4,4-2.8,6.06-4.19a.29.29,0,0,1,.4.08.28.28,0,0,1-.08.4q-3,2.09-6,4.19c-5.93,4.11-12.06,8.37-18.2,12.12A.3.3,0,0,1,315.11,136.43Z" transform="translate(-311.68 -65.49)"/><path class="cls-2" d="M315.51,141.13a.3.3,0,0,1-.24-.12.3.3,0,0,1,.07-.41C323.08,135.26,331.05,130,339,125a.29.29,0,1,1,.31.49c-8,5-15.94,10.21-23.67,15.55A.24.24,0,0,1,315.51,141.13Z" transform="translate(-311.68 -65.49)"/><path class="cls-2" d="M315.22,146.16a.29.29,0,0,1-.24-.11.3.3,0,0,1,.06-.41,254,254,0,0,1,24.17-16.4.31.31,0,0,1,.4.1.3.3,0,0,1-.1.4,252.27,252.27,0,0,0-24.12,16.36A.22.22,0,0,1,315.22,146.16Z" transform="translate(-311.68 -65.49)"/><path class="cls-2" d="M316.51,150.3a.28.28,0,0,1-.23-.12.28.28,0,0,1,.06-.4c7.4-5.47,15.05-10.8,22.74-15.86a.29.29,0,0,1,.4.08.3.3,0,0,1-.08.41c-7.68,5.05-15.32,10.37-22.71,15.83A.32.32,0,0,1,316.51,150.3Z" transform="translate(-311.68 -65.49)"/><path class="cls-2" d="M323.17,150.13a.31.31,0,0,1-.24-.13.29.29,0,0,1,.07-.4l15.87-11.24a.3.3,0,0,1,.41.07.29.29,0,0,1-.07.4l-15.87,11.24A.27.27,0,0,1,323.17,150.13Z" transform="translate(-311.68 -65.49)"/><path class="cls-2" d="M329.37,150.19a.28.28,0,0,1-.23-.11.28.28,0,0,1,.05-.4c3.25-2.59,6.64-5.08,10.06-7.43a.3.3,0,0,1,.41.08.29.29,0,0,1-.08.4c-3.41,2.34-6.79,4.82-10,7.4A.3.3,0,0,1,329.37,150.19Z" transform="translate(-311.68 -65.49)"/><path class="cls-2" d="M335.55,149.84a.31.31,0,0,1-.23-.11.3.3,0,0,1,.06-.41l3.67-2.79a.3.3,0,0,1,.41.05.29.29,0,0,1-.06.41l-3.67,2.79A.28.28,0,0,1,335.55,149.84Z" transform="translate(-311.68 -65.49)"/><g class="cls-4"><path class="cls-2" d="M419.19,135.26a1.54,1.54,0,0,0-1.23.2,1.43,1.43,0,0,0-.58.38c-.57.72-1.57,1.28-1.55,2.3a1.68,1.68,0,0,0,2.84,1.18,6.91,6.91,0,0,0,1.44-1.77v0A1.56,1.56,0,0,0,419.19,135.26Z" transform="translate(-311.68 -65.49)"/></g><g class="cls-4"><path class="cls-2" d="M339.22,160.75a6,6,0,0,0-1.83.37,43,43,0,0,0-5.79.17c-4.23.33-8.47,0-12.71.26-1.27,0-2.55,0-3.83,0a2.61,2.61,0,0,0-1.3.15,1.76,1.76,0,0,0,.68,3.38c2.73.13,5.47,0,8.2-.07,3.89.13,7.79.05,11.68-.1a13.64,13.64,0,0,0,3.24-.42h0a3.89,3.89,0,0,1,.57,0l-.09,0,.09,0c.28,0,.46.06.11,0a6.25,6.25,0,0,0,1,.09A1.94,1.94,0,0,0,339.22,160.75Z" transform="translate(-311.68 -65.49)"/></g><g class="cls-4"><path class="cls-2" d="M338.14,164.52h0Z" transform="translate(-311.68 -65.49)"/></g><g class="cls-4"><path class="cls-2" d="M379,158.1c-.75-.47-1.65-.14-2.48-.18a37.74,37.74,0,0,0-5.1,0c-6,.16-12,0-17.95.31a1.84,1.84,0,0,0,0,3.67c4.21-.1,8.43,0,12.65.08a47.48,47.48,0,0,0,7.82-.05c1-.09,2-.14,3-.16a5.32,5.32,0,0,0,1.83-.22A1.93,1.93,0,0,0,379,158.1Z" transform="translate(-311.68 -65.49)"/></g><g class="cls-4"><path class="cls-2" d="M418.15,153.19a10.4,10.4,0,0,0-4-.07l.45-.06c-1.53.12-3.06.15-4.6.13-4.42.24-8.85-.49-13.26-.17a34.4,34.4,0,0,1-3.52.12,2.54,2.54,0,0,0-1.31.17,2,2,0,0,0,.78,3.84c7.13.44,14.28.48,21.43.5.77,0,1.54-.12,2.32-.09a3.89,3.89,0,0,0,1.95-.15A2.25,2.25,0,0,0,418.15,153.19Z" transform="translate(-311.68 -65.49)"/></g><g class="cls-4"><path class="cls-2" d="M379.61,95.86a2.13,2.13,0,0,0-1.37-.27c-.24,0-1.66.11-2.05.11-2.09,0-4.19,0-6.29.09-4.48.13-9-.19-13.45-.29-1.08,0-2.16,0-3.23-.08a2.75,2.75,0,0,0-1.53.14,2.15,2.15,0,0,0,.83,4.12c3.44.21,6.89.3,10.33.46,3.62,0,7.26-.2,10.88-.1A37.51,37.51,0,0,0,378,100a2.94,2.94,0,0,0,1.38-.2A2.19,2.19,0,0,0,379.61,95.86Z" transform="translate(-311.68 -65.49)"/></g><g class="cls-4"><path class="cls-2" d="M341,91.29c-.81-.84-1.95-.65-3-.53-1.41.15-2.84.1-4.25.24-5.42.24-10.85-.33-16.27,0-1,0-1.92.08-2.88.08a3.08,3.08,0,0,0-1.51.17,2.05,2.05,0,0,0,.79,3.93c6.82.34,13.65-.16,20.47.07a24.33,24.33,0,0,0,3.91-.09,5.88,5.88,0,0,0,2-.26A2.23,2.23,0,0,0,341,91.29Z" transform="translate(-311.68 -65.49)"/></g></svg>