<svg id="Layer_1" data-name="Layer 1" xmlns="http://www.w3.org/2000/svg" viewBox="0 0 109.06 131.78"><defs><style>.cls-1{fill:#f4b183;}.cls-2{fill:#7c3c0c;}.cls-3{fill:#fbe5d6;}.cls-4{opacity:0.13;}</style></defs><title>skills</title><rect class="cls-1" x="0.87" y="0.87" width="74.76" height="130.04" rx="14.33"/><path class="cls-2" d="M374,174.12H327.61a15.09,15.09,0,0,1-15.07-15.07V57.41a15.09,15.09,0,0,1,15.07-15.07H374A15.09,15.09,0,0,1,389,57.41V159.05A15.09,15.09,0,0,1,374,174.12Zm-46.35-130a13.35,13.35,0,0,0-13.33,13.33V159.05a13.35,13.35,0,0,0,13.33,13.33H374a13.35,13.35,0,0,0,13.34-13.33V57.41A13.35,13.35,0,0,0,374,44.08Z" transform="translate(-312.54 -42.34)"/><rect class="cls-3" x="0.87" y="14.7" width="74.76" height="98.06"/><path class="cls-2" d="M388.17,156H313.41a.87.87,0,0,1-.87-.87V57a.87.87,0,0,1,.87-.87h74.76A.87.87,0,0,1,389,57V155.1A.87.87,0,0,1,388.17,156Zm-73.89-1.74h73V57.91h-73Z" transform="translate(-312.54 -42.34)"/><path class="cls-2" d="M358.28,163H344.81a.87.87,0,0,1,0-1.74h13.47a.87.87,0,0,1,0,1.74Z" transform="translate(-312.54 -42.34)"/><path class="cls-2" d="M358.91,76H325.85a.87.87,0,1,1,0-1.74h33.06a.87.87,0,0,1,0,1.74Z" transform="translate(-312.54 -42.34)"/><path class="cls-2" d="M342.38,96.38H325.85a.87.87,0,0,1,0-1.74h16.53a.87.87,0,0,1,0,1.74Z" transform="translate(-312.54 -42.34)"/><path class="cls-2" d="M342.38,116.72H325.85a.87.87,0,1,1,0-1.74h16.53a.87.87,0,1,1,0,1.74Z" transform="translate(-312.54 -42.34)"/><path class="cls-2" d="M342.38,137.07H325.85a.87.87,0,0,1,0-1.74h16.53a.87.87,0,0,1,0,1.74Z" transform="translate(-312.54 -42.34)"/><g class="cls-4"><path class="cls-2" d="M383.16,57.22c-2.55-.08-5.1-.19-7.65-.16q-10.31-.11-20.6,0c-5.4,0-10.8.26-16.2-.1-6.62-.21-13.24-.6-19.87-.34-.93,0-1.86,0-2.79,0a2.88,2.88,0,0,0-1.67.17,2.54,2.54,0,0,0,1,4.86c3.23.23,6.47,0,9.71.05,3.86,0,7.71.3,11.57.38,14.4.09,28.81.15,43.2-.1,1.92,0,3.83,0,5.74,0,1.59.18,3.19-.57,3.21-2.36C388.6,56.5,385.3,57.33,383.16,57.22Z" transform="translate(-312.54 -42.34)"/></g><path class="cls-3" d="M388,72.64c-18.1,0-32.77,15.24-32.77,34a34.69,34.69,0,0,0,6.74,20.67l-4,16.47,13.75-7.61A31.71,31.71,0,0,0,388,140.72c18.1,0,32.77-15.24,32.77-34S406.06,72.64,388,72.64Z" transform="translate(-312.54 -42.34)"/><path class="cls-2" d="M357.92,144.69a.87.87,0,0,1-.85-1.07L361,127.54a35.43,35.43,0,0,1-6.67-20.86c0-19.25,15.09-34.91,33.64-34.91s33.64,15.66,33.64,34.91S406.51,141.59,388,141.59a32.69,32.69,0,0,1-16.31-4.38l-13.31,7.37A.8.8,0,0,1,357.92,144.69Zm30-71.18c-17.59,0-31.9,14.88-31.9,33.17a33.69,33.69,0,0,0,6.57,20.15.87.87,0,0,1,.14.73l-3.54,14.54,12-6.65a.87.87,0,0,1,.87,0A31,31,0,0,0,388,139.85c17.59,0,31.9-14.88,31.9-33.17S405.55,73.51,388,73.51Z" transform="translate(-312.54 -42.34)"/><polygon class="cls-1" points="75.63 44.53 79.92 58.42 93.81 58.42 82.57 67.01 86.86 80.89 75.63 72.31 64.39 80.89 68.68 67.01 57.45 58.42 71.34 58.42 75.63 44.53"/><path class="cls-2" d="M376.93,124.11a.85.85,0,0,1-.5-.16.87.87,0,0,1-.33-1l4.11-13.31-10.75-8.21A.87.87,0,0,1,370,99.9h13.24l4.11-13.28a.86.86,0,0,1,.83-.61h0a.86.86,0,0,1,.83.61l4.1,13.28h13.25a.86.86,0,0,1,.82.59.88.88,0,0,1-.29,1l-10.76,8.21L400.23,123a.86.86,0,0,1-.33,1,.87.87,0,0,1-1,0l-10.7-8.18-10.71,8.18A.87.87,0,0,1,376.93,124.11Zm-4.37-22.47,9.19,7a.86.86,0,0,1,.3.94l-3.48,11.29,9.07-6.93a.86.86,0,0,1,1.05,0l9.08,6.93-3.49-11.29a.86.86,0,0,1,.3-.94l9.2-7H392.46a.87.87,0,0,1-.83-.62l-3.46-11.2L384.71,101a.88.88,0,0,1-.84.62Z" transform="translate(-312.54 -42.34)"/><g class="cls-4"><path class="cls-2" d="M386.47,140.44a42.12,42.12,0,0,1-14.77-4c-1.05-.37-2,.28-2.88.75-1.91.94-3.69,2.12-5.61,3-1.18.56-2.36,1.1-3.56,1.61-.68.29-1.47.47-1.84,1.17a2,2,0,0,0,2.18,2.85,71.32,71.32,0,0,0,9.39-4.66,14.87,14.87,0,0,1,1.57-.79c.72.36,1.47.68,2.22,1a53.45,53.45,0,0,0,12.79,3C389.62,145.23,390.24,140.29,386.47,140.44Z" transform="translate(-312.54 -42.34)"/></g></svg>