<svg id="Layer_1" data-name="Layer 1" xmlns="http://www.w3.org/2000/svg" viewBox="0 0 125.67 125.19"><defs><style>.cls-1{fill:#fbe5d6;}.cls-2{fill:#7c3c0c;}.cls-3{fill:#f4b183;}.cls-4{opacity:0.13;}</style></defs><title>summary</title><polygon class="cls-1" points="0.86 13.74 0.86 124.33 87.53 122.51 88.54 12.17 0.86 13.74"/><path class="cls-2" d="M289.85,342.6a.87.87,0,0,1-.6-.24.84.84,0,0,1-.26-.62V231.15a.86.86,0,0,1,.84-.86l87.69-1.56a.89.89,0,0,1,.62.24.9.9,0,0,1,.25.62l-1,110.34a.86.86,0,0,1-.84.85l-86.68,1.82ZM290.7,232V340.87l85-1.79,1-108.62Z" transform="translate(-288.99 -217.42)"/><path class="cls-1" d="M402.39,225.67l2.07-5a4,4,0,0,1,1.47-2.08,3.67,3.67,0,0,1,2.41-.22,2.9,2.9,0,0,1,2.42,1.44,3,3,0,0,1-.66,2.53c-1.12,1.79-2.29,3.55-3.49,5.29a3.08,3.08,0,0,1-.92,1,2.24,2.24,0,0,1-1.09.25,2.77,2.77,0,0,1-2.28-1.11C401.82,227,401.82,226,402.39,225.67Z" transform="translate(-288.99 -217.42)"/><path class="cls-2" d="M404.61,229.72h0a3.63,3.63,0,0,1-3-1.49,2.81,2.81,0,0,1-.45-2.19,1.8,1.8,0,0,1,.53-.92l2-4.77a4.77,4.77,0,0,1,1.84-2.51,4.45,4.45,0,0,1,3-.31c1.66.27,2.7.93,3.09,2a3.87,3.87,0,0,1-.74,3.29c-1.13,1.79-2.31,3.58-3.51,5.32a4,4,0,0,1-1.2,1.23A3,3,0,0,1,404.61,229.72Zm-1.77-3.32a1.11,1.11,0,0,0,.18.86,1.94,1.94,0,0,0,1.58.74h0a1.33,1.33,0,0,0,.65-.14,2.34,2.34,0,0,0,.65-.72c1.18-1.71,2.35-3.48,3.47-5.25.38-.62.76-1.31.58-1.78s-.78-.73-1.76-.89a3,3,0,0,0-1.84.11,3.29,3.29,0,0,0-1.11,1.67l-2.07,5A.84.84,0,0,1,402.84,226.4Zm-.45-.73h0Z" transform="translate(-288.99 -217.42)"/><path class="cls-1" d="M308.13,220.68c-1.22.28-2.6.68-3.15,1.79a4,4,0,0,0-.31,1.79,69.77,69.77,0,0,0,.2,9.37,5.55,5.55,0,0,0,1.05,3.1,2.26,2.26,0,0,0,3,.52,3.2,3.2,0,0,0,.8-2.54l.15-9.46C309.89,223.58,309.65,221.51,308.13,220.68Z" transform="translate(-288.99 -217.42)"/><path class="cls-2" d="M307.82,238.49a3.48,3.48,0,0,1-2.56-1.2,6.46,6.46,0,0,1-1.24-3.56,71.87,71.87,0,0,1-.21-9.49,5,5,0,0,1,.4-2.16c.78-1.55,2.7-2,3.72-2.24a.86.86,0,0,1,.61.09c1.49.81,2.23,2.61,2.18,5.33l-.15,9.46a4,4,0,0,1-1.11,3.19A2.55,2.55,0,0,1,307.82,238.49ZM308,221.6a3.34,3.34,0,0,0-2.23,1.25,3.59,3.59,0,0,0-.21,1.43,69.87,69.87,0,0,0,.19,9.26,4.9,4.9,0,0,0,.85,2.64c.43.5,1.33.8,1.8.41s.47-1.17.49-1.9l.15-9.46C309,223.4,308.69,222.18,308,221.6Z" transform="translate(-288.99 -217.42)"/><path class="cls-1" d="M335.21,220.68c-1.22.28-2.59.68-3.15,1.79a4.34,4.34,0,0,0-.31,1.79,71.47,71.47,0,0,0,.2,9.37,5.71,5.71,0,0,0,1.05,3.1,2.27,2.27,0,0,0,3,.52,3.27,3.27,0,0,0,.8-2.54l.15-9.46C337,223.58,336.73,221.51,335.21,220.68Z" transform="translate(-288.99 -217.42)"/><path class="cls-2" d="M334.9,238.49a3.46,3.46,0,0,1-2.55-1.2,6.4,6.4,0,0,1-1.25-3.56,71.91,71.91,0,0,1-.21-9.49,5,5,0,0,1,.41-2.16c.78-1.55,2.69-2,3.72-2.24a.87.87,0,0,1,.61.09c1.49.81,2.22,2.61,2.18,5.33l-.15,9.46a4.05,4.05,0,0,1-1.12,3.19A2.55,2.55,0,0,1,334.9,238.49Zm.15-16.89a3.32,3.32,0,0,0-2.22,1.25,3.42,3.42,0,0,0-.22,1.43,70,70,0,0,0,.2,9.26,5,5,0,0,0,.84,2.64c.43.5,1.33.8,1.8.41s.48-1.17.49-1.9l.15-9.46C336.12,223.4,335.77,222.18,335.05,221.6Z" transform="translate(-288.99 -217.42)"/><path class="cls-1" d="M362.3,220.68c-1.22.28-2.6.68-3.15,1.79a4,4,0,0,0-.31,1.79,68.15,68.15,0,0,0,.2,9.37,5.62,5.62,0,0,0,1,3.1,2.27,2.27,0,0,0,3,.52,3.2,3.2,0,0,0,.8-2.54l.15-9.46C364.06,223.58,363.82,221.51,362.3,220.68Z" transform="translate(-288.99 -217.42)"/><path class="cls-2" d="M362,238.49a3.46,3.46,0,0,1-2.55-1.2,6.38,6.38,0,0,1-1.24-3.56,70.2,70.2,0,0,1-.21-9.49,4.82,4.82,0,0,1,.4-2.16c.78-1.55,2.7-2,3.72-2.24a.91.91,0,0,1,.61.09c1.51.82,2.22,2.57,2.18,5.33l-.15,9.46a4,4,0,0,1-1.11,3.19A2.58,2.58,0,0,1,362,238.49Zm.16-16.89a3.34,3.34,0,0,0-2.23,1.25,3.77,3.77,0,0,0-.22,1.43,69.88,69.88,0,0,0,.2,9.26,4.9,4.9,0,0,0,.85,2.64,1.47,1.47,0,0,0,1.8.41c.42-.35.47-1.17.48-1.9l.16-9.46C363.2,223.4,362.86,222.18,362.14,221.6Z" transform="translate(-288.99 -217.42)"/><path class="cls-1" d="M381.91,261.49c-5.12,10.14-9.1,19.42-14.83,30.75a35.7,35.7,0,0,0-1.49,4.56,6.37,6.37,0,0,0,.59,4.64,3.72,3.72,0,0,0,4.18,1.67,5.9,5.9,0,0,0,2.72-2.85c6.65-11.46,12.52-23.63,18.63-35.38Z" transform="translate(-288.99 -217.42)"/><path class="cls-2" d="M369.38,304.13a4.74,4.74,0,0,1-3.92-2.24,7.28,7.28,0,0,1-.72-5.26,22.41,22.41,0,0,1,1.05-3.34c.16-.44.32-.88.47-1.32a1.17,1.17,0,0,1,.05-.11c2.94-5.82,5.42-11.11,7.83-16.22,2.32-4.93,4.51-9.6,7-14.54a.85.85,0,0,1,1-.42l9.8,3.39a.85.85,0,0,1,.51.49.86.86,0,0,1,0,.72c-1.74,3.34-3.49,6.79-5.19,10.12-4.27,8.39-8.69,17.08-13.46,25.29a6.67,6.67,0,0,1-3.17,3.23A3.93,3.93,0,0,1,369.38,304.13Zm-1.51-11.55c-.15.43-.31.87-.47,1.3a18.94,18.94,0,0,0-1,3.09,5.55,5.55,0,0,0,.48,4,2.89,2.89,0,0,0,3.16,1.32,5.1,5.1,0,0,0,2.26-2.47c4.75-8.17,9.16-16.83,13.42-25.21,1.55-3,3.15-6.18,4.74-9.25l-8.15-2.82c-2.35,4.67-4.44,9.12-6.65,13.82C373.29,281.48,370.81,286.76,367.87,292.58Z" transform="translate(-288.99 -217.42)"/><path class="cls-3" d="M391.93,267.59a116.18,116.18,0,0,1-12.17-6.15c3.6-6.13,4.83-10,8-16.44,1.24-2.52,5.87-11.47,6.84-13.38,3.84-7.62,9.31-6,12.31-3.92,5.33,3.71-.72,10.91-1.81,12.92A280.07,280.07,0,0,0,391.93,267.59Z" transform="translate(-288.99 -217.42)"/><path class="cls-2" d="M391.93,268.45a.78.78,0,0,1-.33-.07,116.86,116.86,0,0,1-12.31-6.22A.87.87,0,0,1,379,261a90.32,90.32,0,0,0,5-10c.88-2,1.79-4,3-6.4.78-1.57,2.87-5.64,4.55-8.92,1-2,1.93-3.75,2.29-4.47,1.66-3.28,3.77-5.26,6.3-5.9a9.13,9.13,0,0,1,7.27,1.67c5.24,3.64,1,10.14-.84,12.91-.3.46-.56.86-.71,1.12a274.08,274.08,0,0,0-13.15,26.89.85.85,0,0,1-.47.46A.78.78,0,0,1,391.93,268.45Zm-11-7.3c2.91,1.74,8.2,4.25,10.56,5.31a284.24,284.24,0,0,1,12.89-26.25c.18-.32.45-.73.79-1.24,2.68-4.09,4.69-8.2,1.29-10.57a7.51,7.51,0,0,0-5.87-1.41c-2,.51-3.77,2.2-5.19,5-.36.73-1.26,2.47-2.29,4.48-1.68,3.27-3.77,7.34-4.54,8.9-1.18,2.38-2.09,4.4-3,6.34A98.68,98.68,0,0,1,380.92,261.15Z" transform="translate(-288.99 -217.42)"/><path class="cls-2" d="M399,265.74a3.06,3.06,0,0,1-1.73-.51,4.31,4.31,0,0,1-1.42-4.79,11,11,0,0,1,2.46-3.89l8.71-10.2a32.52,32.52,0,0,0,4.7-6.52,10.11,10.11,0,0,0,.94-7.34,6.06,6.06,0,0,0-5.21-4.37.86.86,0,1,1,.07-1.72,7.73,7.73,0,0,1,6.78,5.59,11.81,11.81,0,0,1-1,8.6,34,34,0,0,1-4.94,6.88l-8.71,10.19a9.87,9.87,0,0,0-2.11,3.27,2.64,2.64,0,0,0,.74,2.88,1.55,1.55,0,0,0,1.47.06.92.92,0,0,0,.57-.66.85.85,0,1,1,1.7.18,2.56,2.56,0,0,1-1.55,2A3.45,3.45,0,0,1,399,265.74Z" transform="translate(-288.99 -217.42)"/><path class="cls-2" d="M365.21,308.92a.78.78,0,0,1-.36-.08.86.86,0,0,1-.41-1.14l2.37-5.1a.85.85,0,1,1,1.55.72l-2.37,5.1A.84.84,0,0,1,365.21,308.92Z" transform="translate(-288.99 -217.42)"/><path class="cls-2" d="M361.41,254.51h0c-18.37-.55-37-.6-55.39-.16a.89.89,0,0,1-.88-.84.87.87,0,0,1,.84-.88c18.41-.44,37.08-.38,55.48.16a.86.86,0,0,1,.83.89A.85.85,0,0,1,361.41,254.51Z" transform="translate(-288.99 -217.42)"/><path class="cls-2" d="M337.56,272.56c-10.8,0-21.61-.26-32.33-.79a.87.87,0,0,1-.82-.9.86.86,0,0,1,.9-.82c17.9.89,36.06,1,54,.44h0a.86.86,0,0,1,0,1.72Q348.49,272.56,337.56,272.56Z" transform="translate(-288.99 -217.42)"/><path class="cls-2" d="M336.81,290.6c-10.79,0-21.59-.19-32.31-.56a.86.86,0,0,1-.83-.89.87.87,0,0,1,.89-.82c17.46.6,35.17.72,52.64.33h0a.86.86,0,0,1,0,1.72C350.46,290.53,343.64,290.6,336.81,290.6Z" transform="translate(-288.99 -217.42)"/><path class="cls-2" d="M322.12,307.34q-9.18,0-18.31-.3a.86.86,0,0,1,.06-1.71c14.43.47,29.05.38,43.47-.27a.84.84,0,0,1,.89.82.85.85,0,0,1-.82.89C339,307.15,330.57,307.34,322.12,307.34Z" transform="translate(-288.99 -217.42)"/><path class="cls-2" d="M303.21,322.79a.86.86,0,0,1,0-1.71l55.33-.28h0a.86.86,0,0,1,0,1.71l-55.33.28Z" transform="translate(-288.99 -217.42)"/><g class="cls-4"><path class="cls-2" d="M388,265.59a28.7,28.7,0,0,0-3.49-1.79l-.11,0-.08,0-2.09-.91a1.64,1.64,0,0,0-1.28-.17,1.68,1.68,0,0,0-.4,3.05,28.53,28.53,0,0,1,3,1.43,18.4,18.4,0,0,0,4.55,2.57l-.45-.19c1.28.75,3,.5,3.21-1.15S389.13,266.19,388,265.59Z" transform="translate(-288.99 -217.42)"/></g><g class="cls-4"><path class="cls-2" d="M408.86,230.19a1.43,1.43,0,0,0-2.74.55c.08,2.67-2.35,6-4.35,9.74-1.78,3.21-3.44,6.49-5,9.79-1.45,2.9-3,5.73-4.36,8.69-.63,1.51-1.42,2.94-2.09,4.42-.41,1-1.11,2.42.05,3.21a1.65,1.65,0,0,0,2.19-.13,12,12,0,0,0,1.24-2.95l.14-.28c1.18-2.44,2.31-4.92,3.57-7.33,3.45-7.2,7.91-13.91,10.77-21.38a10.52,10.52,0,0,0,.71-2.86A3,3,0,0,0,408.86,230.19Z" transform="translate(-288.99 -217.42)"/></g><g class="cls-4"><path class="cls-2" d="M377.8,257.66c.28-6.19-.47-12.35-.55-18.53-.05-2.32-.29-4.63-.45-6.95-.08-.82,0-1.76-.63-2.37a1.91,1.91,0,0,0-3.23,1.34c.47,5.27.63,10.55.81,15.84.45,7.56.29,15.15.16,22.73a4.8,4.8,0,0,0,.12,2,1.74,1.74,0,0,0,2.08,1c1.42-.37,1.31-1.88,1.36-3.05,0-1.33.31-2.65.35-4C377.83,263,377.73,260.34,377.8,257.66Z" transform="translate(-288.99 -217.42)"/></g><g class="cls-4"><path class="cls-2" d="M376.68,317.69c-.05-4.16.05-8.31.25-12.47.1-1.76-.14-3.52.05-5.27a10.28,10.28,0,0,0,.48-2.66,1.89,1.89,0,0,0-3.69-.25,19.7,19.7,0,0,0-.63,2.71c-.47.55-.76,1.2-1.18,1.78-.14.17-.35.41-.49.56l-.07.06a1.51,1.51,0,0,0-.3,0c-2-.05-3.71,1.41-2.73,3.47.89,1.39,2.79,1.46,4.24.89-.12,2.63-.1,5.27,0,7.9,0,2-.12,4-.06,6,0,3.21.56,6.37.77,9.56a52.12,52.12,0,0,1-.37,7,6,6,0,0,0-.26,1.71,1.68,1.68,0,0,0,2.51,1.23,1.85,1.85,0,0,0,.68-.76l.19-.42L376,339a10.47,10.47,0,0,0,.81-3.27c.36-1.11.31-5.11.31-7.84C377,324.46,376.75,321.08,376.68,317.69Z" transform="translate(-288.99 -217.42)"/></g><g class="cls-4"><path class="cls-2" d="M309,235.26c-.61-1-.29-.49-.77-2a1.33,1.33,0,0,0-.31-.6,1.75,1.75,0,0,0-3.07,1.53,18.48,18.48,0,0,0,.64,2.2,2.37,2.37,0,0,0,.8,1.26A1.84,1.84,0,0,0,309,235.26Z" transform="translate(-288.99 -217.42)"/></g><g class="cls-4"><path class="cls-2" d="M335.76,233.28c-.35-.54-.54-1.25-1.09-1.63A1.79,1.79,0,0,0,332,234a10.14,10.14,0,0,0,1.49,2.29,1.77,1.77,0,0,0,2.84-1.39A3.44,3.44,0,0,0,335.76,233.28Z" transform="translate(-288.99 -217.42)"/></g><g class="cls-4"><path class="cls-2" d="M363.06,233.92c-.3-.88-.23-2-.79-2.73a1.74,1.74,0,0,0-3,1.52c.38,1.2.27,2.84,1.43,3.61C362.29,237.17,363.7,235.54,363.06,233.92Z" transform="translate(-288.99 -217.42)"/></g></svg>