<?xml version="1.0" encoding="utf-8"?>
<!-- Generator: Adobe Illustrator 23.1.0, SVG Export Plug-In . SVG Version: 6.00 Build 0)  -->
<svg version="1.1" id="Слой_1" xmlns="http://www.w3.org/2000/svg" xmlns:xlink="http://www.w3.org/1999/xlink" x="0px" y="0px"
	 viewBox="0 0 32 32" style="enable-background:new 0 0 32 32;" xml:space="preserve">
<style type="text/css">
	.st0{fill:#843C0C;}
</style>
<title>4</title>
<path class="st0" d="M28.2,3.8c-0.1,0-0.3,0.1-0.4,0.1C27.2,4.1,2.8,14.6,2.6,14.7c-1.1,0.8-0.9,2.2,0.3,2.9
	c0.1,0.1,1.6,0.6,3.1,1.1s2.9,1,2.9,1c0,0,0.5,1.6,1.1,3.5c1.4,4.5,1.5,4.8,2.1,5c0.7,0.2,0.9,0.1,3-1.8l1.8-1.6l2.8,2.2
	c3.1,2.4,3,2.4,3.8,2.4c0.9,0.1,1.7-0.4,2.1-1.1c0.3-0.5,4.4-22.2,4.4-22.9C30,4.3,29.2,3.6,28.2,3.8L28.2,3.8z M28.7,5.5
	c0,0.5-4.2,22.2-4.3,22.4c-0.5,0.6-0.6,0.6-3.9-2c-1.6-1.2-3.4-2.7-4.1-3.2s-1.2-0.9-1.2-1c0,0,2.4-2.8,5.2-6.2l5.2-6.2V9
	c0-0.4-0.2-0.6-0.6-0.6c-0.3,0-0.7,0.3-7.9,5.1c-4.2,2.8-7.6,5.1-7.6,5.1c-0.6,0-6.2-2.1-6.2-2.4c0-0.2,1.9-1,22.2-9.7
	C28.6,5,28.7,5,28.7,5.5L28.7,5.5z M17.3,16.9c-2.1,2.5-3.9,4.6-3.9,4.6s-0.3,1.1-0.5,2.4s-0.5,2.3-0.5,2.3s-0.5-1.5-1-3.3
	c-0.7-2.4-1-3.4-0.9-3.4c0,0,2.5-1.6,5.4-3.6s5.3-3.5,5.3-3.5C21.2,12.3,19.5,14.4,17.3,16.9L17.3,16.9z M15.2,23.4
	c0.3,0.2,0.6,0.5,0.6,0.5c0,0.1-1.8,1.8-1.9,1.8s0.6-2.7,0.6-2.7C14.6,23,14.8,23.2,15.2,23.4L15.2,23.4z"/>
</svg>
